<svg xmlns="http://www.w3.org/2000/svg" xmlns:xlink="http://www.w3.org/1999/xlink" width="156" height="156" viewBox="0 0 156 156">
  <defs>
    <clipPath id="clip-path">
      <rect id="Rectángulo_4685" data-name="Rectángulo 4685" width="107.906" height="100.672" fill="none"/>
    </clipPath>
    <clipPath id="clip-path-2">
      <path id="Trazado_34147" data-name="Trazado 34147" d="M243.489,107.617v18.415a2.077,2.077,0,0,0,4.095,0V107.617a2.077,2.077,0,0,0-4.095,0" transform="translate(-243.489 -105.891)" fill="none"/>
    </clipPath>
    <linearGradient id="linear-gradient" x1="-4.982" y1="3.524" x2="-4.96" y2="3.524" gradientUnits="objectBoundingBox">
      <stop offset="0" stop-color="#3d4451"/>
      <stop offset="1" stop-color="#3d4451"/>
    </linearGradient>
    <clipPath id="clip-path-3">
      <path id="Trazado_34148" data-name="Trazado 34148" d="M218.472,0V17.732a2.346,2.346,0,0,1-1.745,2.075L203.943,24.3a1.925,1.925,0,0,1-1.728-.212.949.949,0,0,1-.452-.752V0H199.1V23.332a3.583,3.583,0,0,0,1.577,2.929,4.544,4.544,0,0,0,2.619.812,4.645,4.645,0,0,0,1.536-.26l12.784-4.489a4.964,4.964,0,0,0,3.529-4.592V0Z" transform="translate(-199.095)" fill="none"/>
    </clipPath>
    <linearGradient id="linear-gradient-2" x1="-1.38" y1="3.218" x2="-1.373" y2="3.218" xlink:href="#linear-gradient"/>
  </defs>
  <g id="Grupo_18885" data-name="Grupo 18885" transform="translate(-422 -5837)">
    <g id="Elipse_981" data-name="Elipse 981" transform="translate(422 5837)" fill="#fff" stroke="#fd8f25" stroke-width="2">
      <circle cx="78" cy="78" r="78" stroke="none"/>
      <circle cx="78" cy="78" r="77" fill="none"/>
    </g>
    <g id="Grupo_18535" data-name="Grupo 18535" transform="translate(446 5859.214)">
      <g id="Grupo_18528" data-name="Grupo 18528">
        <g id="Grupo_18527" data-name="Grupo 18527" clip-path="url(#clip-path)">
          <path id="Trazado_34134" data-name="Trazado 34134" d="M108.551,331.825H35.936a12.2,12.2,0,0,1-12.2-12.2v-1.663a12.2,12.2,0,0,1,12.2-12.2h72.615a12.2,12.2,0,0,1,12.2,12.2v1.663a12.2,12.2,0,0,1-12.2,12.2" transform="translate(-18.641 -240.116)" fill="#c7ddeb"/>
          <path id="Trazado_34135" data-name="Trazado 34135" d="M111.011,350.972H39.966a12.9,12.9,0,0,1-12.889-12.889v-.991A12.9,12.9,0,0,1,39.966,324.2h71.044A12.9,12.9,0,0,1,123.9,337.092v.991a12.9,12.9,0,0,1-12.889,12.889M39.966,326.862a10.242,10.242,0,0,0-10.231,10.23v.991a10.242,10.242,0,0,0,10.231,10.23h71.044a10.242,10.242,0,0,0,10.23-10.23v-.991a10.242,10.242,0,0,0-10.23-10.23Z" transform="translate(-21.263 -254.595)" fill="#3d4451"/>
          <path id="Trazado_34136" data-name="Trazado 34136" d="M84.073,361.2a6.711,6.711,0,1,1,6.711,6.711,6.711,6.711,0,0,1-6.711-6.711" transform="translate(-66.022 -278.376)" fill="#f3fdff"/>
          <path id="Trazado_34137" data-name="Trazado 34137" d="M86.779,365a7.806,7.806,0,1,1,7.806-7.807A7.815,7.815,0,0,1,86.779,365m0-13.423a5.616,5.616,0,1,0,5.616,5.616,5.622,5.622,0,0,0-5.616-5.616" transform="translate(-62.017 -274.371)" fill="#3d4451"/>
          <path id="Trazado_34138" data-name="Trazado 34138" d="M358.688,362.324a6.711,6.711,0,1,1,6.711,6.711,6.711,6.711,0,0,1-6.711-6.711" transform="translate(-281.676 -279.261)" fill="#f3fdff"/>
          <path id="Trazado_34139" data-name="Trazado 34139" d="M361.394,366.126a7.806,7.806,0,1,1,7.806-7.807,7.815,7.815,0,0,1-7.806,7.807m0-13.423a5.616,5.616,0,1,0,5.616,5.616,5.622,5.622,0,0,0-5.616-5.616" transform="translate(-277.671 -275.256)" fill="#3d4451"/>
          <path id="Trazado_34140" data-name="Trazado 34140" d="M220.984,362.324a6.711,6.711,0,1,1,6.711,6.711,6.711,6.711,0,0,1-6.711-6.711" transform="translate(-173.538 -279.261)" fill="#f3fdff"/>
          <path id="Trazado_34141" data-name="Trazado 34141" d="M223.69,366.126a7.806,7.806,0,1,1,7.806-7.807,7.815,7.815,0,0,1-7.806,7.807m0-13.423a5.616,5.616,0,1,0,5.616,5.616,5.622,5.622,0,0,0-5.616-5.616" transform="translate(-169.533 -275.256)" fill="#3d4451"/>
          <path id="Trazado_34142" data-name="Trazado 34142" d="M228.917,229.474H217.739a2.576,2.576,0,0,1-2.576-2.576V215.721a2.576,2.576,0,0,1,2.576-2.576h11.178a2.576,2.576,0,0,1,2.576,2.576V226.9a2.576,2.576,0,0,1-2.576,2.576" transform="translate(-168.966 -167.382)" fill="#f04f4c"/>
          <path id="Trazado_34143" data-name="Trazado 34143" d="M224.411,226.2H213.234a3.812,3.812,0,0,1-3.808-3.808V211.216a3.812,3.812,0,0,1,3.808-3.808h11.178a3.812,3.812,0,0,1,3.807,3.808v11.178a3.812,3.812,0,0,1-3.807,3.808m-11.178-16.329a1.345,1.345,0,0,0-1.344,1.344v11.178a1.345,1.345,0,0,0,1.344,1.344h11.178a1.345,1.345,0,0,0,1.344-1.344V211.216a1.345,1.345,0,0,0-1.344-1.344Z" transform="translate(-164.461 -162.876)" fill="#3d4451"/>
          <rect id="Rectángulo_4683" data-name="Rectángulo 4683" width="15.24" height="15.24" transform="translate(76.539 46.308)" fill="#fdc345"/>
          <path id="Trazado_34144" data-name="Trazado 34144" d="M369.541,228.739H352.658V211.856h16.883ZM354.3,227.1h13.6V213.5H354.3Z" transform="translate(-276.941 -166.369)" fill="#3d4451"/>
          <rect id="Rectángulo_4684" data-name="Rectángulo 4684" width="15.24" height="15.24" transform="translate(18.165 46.308)" fill="#fdc345"/>
          <path id="Trazado_34145" data-name="Trazado 34145" d="M97.663,228.739H80.78V211.856H97.663ZM82.423,227.1h13.6V213.5h-13.6Z" transform="translate(-63.436 -166.369)" fill="#3d4451"/>
          <path id="Trazado_34146" data-name="Trazado 34146" d="M226.426,0V23.332c0,1.718,2.087,2.883,3.98,2.222l12.863-4.489a3.665,3.665,0,0,0,2.653-3.333V0" transform="translate(-177.811)" fill="#c7ddeb"/>
        </g>
      </g>
      <g id="Grupo_18530" data-name="Grupo 18530" transform="translate(52.278 22.735)">
        <g id="Grupo_18529" data-name="Grupo 18529" clip-path="url(#clip-path-2)">
          <rect id="Rectángulo_4686" data-name="Rectángulo 4686" width="9.911" height="22.154" transform="translate(-5.744 1.631) rotate(-15.848)" fill="url(#linear-gradient)"/>
        </g>
      </g>
      <g id="Grupo_18532" data-name="Grupo 18532" transform="translate(42.747)">
        <g id="Grupo_18531" data-name="Grupo 18531" clip-path="url(#clip-path-3)">
          <rect id="Rectángulo_4687" data-name="Rectángulo 4687" width="28.6" height="32.063" transform="matrix(0.962, -0.273, 0.273, 0.962, -7.112, 2.019)" fill="url(#linear-gradient-2)"/>
        </g>
      </g>
      <g id="Grupo_18534" data-name="Grupo 18534">
        <g id="Grupo_18533" data-name="Grupo 18533" clip-path="url(#clip-path)">
          <path id="Trazado_34149" data-name="Trazado 34149" d="M183.155,148.822a.994.994,0,0,1-.91-.594l-4.53-10.279,13.559-9.312a.994.994,0,0,1,1.125,1.639l-12.2,8.378,3.866,8.771a.995.995,0,0,1-.909,1.4" transform="translate(-139.558 -100.881)" fill="#3d4451"/>
          <path id="Trazado_34150" data-name="Trazado 34150" d="M265.254,148.821a.995.995,0,0,1-.909-1.4l3.866-8.771-12.2-8.378a.994.994,0,0,1,1.125-1.639l13.56,9.312-4.531,10.279a.994.994,0,0,1-.91.594" transform="translate(-200.705 -100.881)" fill="#3d4451"/>
          <path id="Trazado_34151" data-name="Trazado 34151" d="M269.024,43.694a.675.675,0,0,1-.675-.675V32.529a.675.675,0,0,1,1.349,0V43.02a.675.675,0,0,1-.675.675" transform="translate(-210.733 -25.015)" fill="#3d4451"/>
          <path id="Trazado_34152" data-name="Trazado 34152" d="M92.432,338.564H86.643a1.074,1.074,0,0,1,0-2.149h5.789a1.074,1.074,0,0,1,0,2.149m-10.185,0H76.495a1.074,1.074,0,0,1,0-2.149h5.752a1.074,1.074,0,0,1,0,2.149m-10.148,0H66.347a1.074,1.074,0,0,1,0-2.149H72.1a1.074,1.074,0,0,1,0,2.149m-10.148,0H56.2a1.074,1.074,0,0,1,0-2.149h5.752a1.074,1.074,0,0,1,0,2.149m-10.148,0H46.052a1.074,1.074,0,0,1,0-2.149H51.8a1.074,1.074,0,0,1,0,2.149m-10.148,0H35.9a1.074,1.074,0,0,1,0-2.149h5.753a1.074,1.074,0,0,1,0,2.149m-10.148,0H25.756a1.074,1.074,0,0,1,0-2.149h5.753a1.074,1.074,0,0,1,0,2.149m-10.148,0H15.609a1.074,1.074,0,0,1,0-2.149h5.752a1.074,1.074,0,0,1,0,2.149m-10.083-.63a1.079,1.079,0,0,1-.315-.047,15.392,15.392,0,0,1-5.4-2.928,1.074,1.074,0,1,1,1.378-1.648,13.261,13.261,0,0,0,4.647,2.522,1.074,1.074,0,0,1-.314,2.1m85.479-.04a1.074,1.074,0,0,1-.324-2.1,13.273,13.273,0,0,0,4.623-2.566,1.074,1.074,0,1,1,1.393,1.635,15.409,15.409,0,0,1-5.368,2.979,1.076,1.076,0,0,1-.325.05m-93.4-5.967a1.073,1.073,0,0,1-.9-.493,15.362,15.362,0,0,1-2.229-5.721,1.074,1.074,0,0,1,2.117-.366,13.22,13.22,0,0,0,1.919,4.925,1.074,1.074,0,0,1-.9,1.655m101.256-.114a1.074,1.074,0,0,1-.908-1.647,13.215,13.215,0,0,0,1.873-4.942,1.074,1.074,0,0,1,2.121.346,15.351,15.351,0,0,1-2.176,5.742,1.073,1.073,0,0,1-.91.5M1.074,322.221A1.074,1.074,0,0,1,0,321.146v-2.7a15.612,15.612,0,0,1,.341-3.251,1.074,1.074,0,1,1,2.1.448,13.454,13.454,0,0,0-.294,2.8v2.7a1.074,1.074,0,0,1-1.074,1.074m105.758-.135a1.074,1.074,0,0,1-1.074-1.074v-2.568a13.442,13.442,0,0,0-.321-2.924,1.074,1.074,0,1,1,2.1-.468,15.6,15.6,0,0,1,.372,3.392v2.568a1.074,1.074,0,0,1-1.074,1.074M2.947,312.4a1.075,1.075,0,0,1-.933-1.605,15.5,15.5,0,0,1,4.023-4.634,1.074,1.074,0,0,1,1.313,1.7,13.355,13.355,0,0,0-3.468,3.995,1.074,1.074,0,0,1-.935.544m101.945-.117a1.074,1.074,0,0,1-.93-.535,13.351,13.351,0,0,0-3.505-3.962,1.074,1.074,0,0,1,1.3-1.713,15.494,15.494,0,0,1,4.066,4.6,1.075,1.075,0,0,1-.928,1.614m-94.368-6.317a1.074,1.074,0,0,1-.371-2.083,15.457,15.457,0,0,1,5.358-.951h.659a1.074,1.074,0,0,1,0,2.149h-.659a13.317,13.317,0,0,0-4.616.818,1.076,1.076,0,0,1-.371.066m86.732-.046a1.074,1.074,0,0,1-.362-.063,13.325,13.325,0,0,0-4.5-.776h-.8a1.074,1.074,0,0,1,0-2.149h.8a15.473,15.473,0,0,1,5.222.9,1.075,1.075,0,0,1-.362,2.086M87.2,305.082H81.452a1.074,1.074,0,0,1,0-2.149H87.2a1.074,1.074,0,0,1,0,2.149m-10.148,0H71.3a1.074,1.074,0,1,1,0-2.149h5.753a1.074,1.074,0,1,1,0,2.149m-10.148,0H61.156a1.074,1.074,0,0,1,0-2.149h5.752a1.074,1.074,0,0,1,0,2.149m-10.147,0H51.009a1.074,1.074,0,0,1,0-2.149h5.753a1.074,1.074,0,0,1,0,2.149m-10.148,0H40.861a1.074,1.074,0,0,1,0-2.149h5.753a1.074,1.074,0,0,1,0,2.149m-10.148,0H30.713a1.074,1.074,0,0,1,0-2.149h5.753a1.074,1.074,0,0,1,0,2.149m-10.148,0H20.566a1.074,1.074,0,0,1,0-2.149h5.752a1.074,1.074,0,0,1,0,2.149" transform="translate(0 -237.892)" fill="#3d4451"/>
        </g>
      </g>
    </g>
  </g>
</svg>
