<svg xmlns="http://www.w3.org/2000/svg" width="84" height="84" viewBox="0 0 84 84">
  <g id="Grupo_18889" data-name="Grupo 18889" transform="translate(-918 -8498)">
    <circle id="Elipse_977" data-name="Elipse 977" cx="42" cy="42" r="42" transform="translate(918 8498)" fill="#00ffe2"/>
    <path id="Trazado_35446" data-name="Trazado 35446" d="M.938,0a9.981,9.981,0,0,1,.981-4.175q.894-2.124,4.219-4.5a30.938,30.938,0,0,0,3.735-2.959,4.373,4.373,0,0,0,1.3-3.047,3.375,3.375,0,0,0-.747-2.241,2.631,2.631,0,0,0-2.139-.894A2.608,2.608,0,0,0,5.7-16.392a7.047,7.047,0,0,0-.469,2.607H1.172a10.261,10.261,0,0,1,.981-4.38q1.67-3.179,5.933-3.179a7.523,7.523,0,0,1,5.361,1.868,6.458,6.458,0,0,1,1.992,4.944,6.693,6.693,0,0,1-1.406,4.189A14.01,14.01,0,0,1,11-7.632L9.331-6.445Q7.764-5.332,7.185-4.834a4.722,4.722,0,0,0-.974,1.157h9.272V0Z" transform="translate(951 8548)" fill="#00223d"/>
  </g>
</svg>
