<svg xmlns="http://www.w3.org/2000/svg" width="84" height="84" viewBox="0 0 84 84">
  <g id="Grupo_18890" data-name="Grupo 18890" transform="translate(-1279 -8498)">
    <circle id="Elipse_979" data-name="Elipse 979" cx="42" cy="42" r="42" transform="translate(1279 8498)" fill="#00ffe2"/>
    <path id="Trazado_35447" data-name="Trazado 35447" d="M4.893-6.519A4.775,4.775,0,0,0,5.3-4.409,2.81,2.81,0,0,0,8.071-2.871a3.068,3.068,0,0,0,2.146-.842,3.13,3.13,0,0,0,.916-2.424,2.731,2.731,0,0,0-1.7-2.8,8.626,8.626,0,0,0-3.047-.4v-2.988a7.905,7.905,0,0,0,2.842-.4,2.443,2.443,0,0,0,1.392-2.49,2.783,2.783,0,0,0-.71-1.978,2.6,2.6,0,0,0-2-.762,2.53,2.53,0,0,0-2.175.938,3.977,3.977,0,0,0-.667,2.5h-3.9a10.477,10.477,0,0,1,.542-3,6.759,6.759,0,0,1,1.611-2.3,5.614,5.614,0,0,1,1.948-1.143,8.431,8.431,0,0,1,2.769-.4,7.368,7.368,0,0,1,4.915,1.575,5.245,5.245,0,0,1,1.868,4.226,4.672,4.672,0,0,1-1.113,3.164,3.8,3.8,0,0,1-1.465,1.1,3.013,3.013,0,0,1,1.641.981,5.241,5.241,0,0,1,1.6,4.043,6.81,6.81,0,0,1-1.868,4.739A7.119,7.119,0,0,1,8.086.527q-4.512,0-6.27-2.944a8.739,8.739,0,0,1-1.025-4.1Z" transform="translate(1312 8548)" fill="#00223d"/>
  </g>
</svg>
