<svg xmlns="http://www.w3.org/2000/svg" width="856" height="413" viewBox="0 0 856 413">
  <g id="Grupo_18898" data-name="Grupo 18898" transform="translate(-500 -2692)">
    <text id="Exportaciones" transform="translate(613.744 2734)" fill="#fff" font-size="18" font-family="Helvetica-Bold, Helvetica" font-weight="700"><tspan x="-62.02" y="0">Exportaciones</tspan></text>
    <text id="Miles_de_USD" data-name="Miles de USD" transform="translate(1025 2734)" fill="#fff" font-size="18" font-family="Helvetica-Bold, Helvetica" font-weight="700"><tspan x="-57.015" y="0">Miles de USD</tspan></text>
    <text id="Part._" data-name="Part. %" transform="translate(1276 2734)" fill="#fff" font-size="18" font-family="Helvetica-Bold, Helvetica" font-weight="700"><tspan x="-30.511" y="0">Part. %</tspan></text>
    <g id="Grupo_18876" data-name="Grupo 18876">
      <rect id="Rectángulo_4821" data-name="Rectángulo 4821" width="856" height="71" transform="translate(500 2692)" fill="#fd8f25"/>
      <rect id="Rectángulo_4822" data-name="Rectángulo 4822" width="856" height="340" transform="translate(500 2765)" fill="#e8e8e8"/>
      <path id="Trazado_35448" data-name="Trazado 35448" d="M-27.343-8.833a1.753,1.753,0,0,0-.532-1.441,2.308,2.308,0,0,0-1.49-.431h-2.522v3.814h2.522a2.187,2.187,0,0,0,1.49-.466A1.865,1.865,0,0,0-27.343-8.833Zm2.681-.018a3.976,3.976,0,0,1-1.16,3.243,5.109,5.109,0,0,1-3.313.949h-2.751V0h-2.689V-12.955h5.643a4.6,4.6,0,0,1,3.111,1A3.882,3.882,0,0,1-24.662-8.851Zm5.607,1.081a1.7,1.7,0,0,0-1.349.545,2.72,2.72,0,0,0-.6,1.477h3.894a2.181,2.181,0,0,0-.6-1.507A1.87,1.87,0,0,0-19.055-7.77Zm0-2.065a5.021,5.021,0,0,1,2.153.448,3.772,3.772,0,0,1,1.582,1.415,4.828,4.828,0,0,1,.729,1.978,12.771,12.771,0,0,1,.079,1.9h-6.557a2.381,2.381,0,0,0,.905,2.021,2.132,2.132,0,0,0,1.248.36,1.8,1.8,0,0,0,1.257-.439,2.087,2.087,0,0,0,.466-.659h2.558a3.178,3.178,0,0,1-.888,1.731,4.349,4.349,0,0,1-3.445,1.4A4.858,4.858,0,0,1-22.192-.861a4.75,4.75,0,0,1-1.4-3.832,5.326,5.326,0,0,1,1.261-3.814A4.312,4.312,0,0,1-19.055-9.835Zm5.247,2.127V-9.492h1.336v-2.672h2.479v2.672h1.556v1.784H-9.993v5.063a1.14,1.14,0,0,0,.149.734,1.645,1.645,0,0,0,.914.145q.114,0,.242,0t.25-.013V.088L-9.624.132A3.184,3.184,0,0,1-12.05-.483a1.832,1.832,0,0,1-.422-1.327v-5.9Zm12.182-2.1q.07,0,.119,0l.215.013v2.566q-.237-.026-.422-.035t-.3-.009a2.078,2.078,0,0,0-2.03.984,3.829,3.829,0,0,0-.29,1.705V0H-6.855V-9.58h2.391v1.67A5.3,5.3,0,0,1-3.454-9.22,2.752,2.752,0,0,1-1.626-9.809Zm6.1,8.042a1.985,1.985,0,0,0,1.688-.782A3.639,3.639,0,0,0,6.75-4.772a3.619,3.619,0,0,0-.589-2.219A1.99,1.99,0,0,0,4.474-7.77a2,2,0,0,0-1.692.778,3.6,3.6,0,0,0-.593,2.219,3.619,3.619,0,0,0,.593,2.224A2,2,0,0,0,4.474-1.767Zm4.9-3.006A5.553,5.553,0,0,1,8.165-1.165,4.456,4.456,0,0,1,4.482.334,4.456,4.456,0,0,1,.8-1.165,5.553,5.553,0,0,1-.413-4.772,5.59,5.59,0,0,1,.8-8.367,4.426,4.426,0,0,1,4.482-9.888,4.426,4.426,0,0,1,8.165-8.367,5.59,5.59,0,0,1,9.378-4.772ZM7.479-13.5,4.808-10.872H3L4.685-13.5ZM13.729,0h-2.5V-12.955h2.5Zm6.223-7.77a1.7,1.7,0,0,0-1.349.545A2.72,2.72,0,0,0,18-5.748h3.894a2.181,2.181,0,0,0-.6-1.507A1.87,1.87,0,0,0,19.951-7.77Zm0-2.065a5.021,5.021,0,0,1,2.153.448,3.772,3.772,0,0,1,1.582,1.415,4.828,4.828,0,0,1,.729,1.978A12.771,12.771,0,0,1,24.5-4.1H17.938a2.381,2.381,0,0,0,.905,2.021,2.132,2.132,0,0,0,1.248.36,1.8,1.8,0,0,0,1.257-.439,2.087,2.087,0,0,0,.466-.659h2.558a3.178,3.178,0,0,1-.888,1.731,4.349,4.349,0,0,1-3.445,1.4A4.858,4.858,0,0,1,16.813-.861a4.75,4.75,0,0,1-1.4-3.832,5.326,5.326,0,0,1,1.261-3.814A4.312,4.312,0,0,1,19.951-9.835ZM30.48-1.767a1.985,1.985,0,0,0,1.688-.782,3.639,3.639,0,0,0,.589-2.224,3.619,3.619,0,0,0-.589-2.219A1.99,1.99,0,0,0,30.48-7.77a2,2,0,0,0-1.692.778A3.6,3.6,0,0,0,28.2-4.772a3.619,3.619,0,0,0,.593,2.224A2,2,0,0,0,30.48-1.767Zm4.9-3.006a5.553,5.553,0,0,1-1.213,3.608,4.456,4.456,0,0,1-3.683,1.5,4.456,4.456,0,0,1-3.683-1.5,5.553,5.553,0,0,1-1.213-3.608,5.59,5.59,0,0,1,1.213-3.595,4.426,4.426,0,0,1,3.683-1.521,4.426,4.426,0,0,1,3.683,1.521A5.59,5.59,0,0,1,35.385-4.772Z" transform="translate(578 2802)" fill="#01223d"/>
      <path id="Trazado_35449" data-name="Trazado 35449" d="M-30.691-6.372A7.115,7.115,0,0,1-28.872-11.6a5.421,5.421,0,0,1,4.025-1.6,5.443,5.443,0,0,1,4.781,2.145,4.643,4.643,0,0,1,.9,2.417h-2.707a3.656,3.656,0,0,0-.677-1.406,2.753,2.753,0,0,0-2.188-.844A2.713,2.713,0,0,0-27.07-9.7a5.725,5.725,0,0,0-.853,3.371,5.025,5.025,0,0,0,.9,3.265,2.847,2.847,0,0,0,2.29,1.085,2.619,2.619,0,0,0,2.171-.932,4.047,4.047,0,0,0,.686-1.5H-19.2a5.815,5.815,0,0,1-1.8,3.445A5.265,5.265,0,0,1-24.7.36a5.588,5.588,0,0,1-4.395-1.793A7.177,7.177,0,0,1-30.691-6.372ZM-12.05-4.658a2.722,2.722,0,0,1-.479.242,4.006,4.006,0,0,1-.664.171l-.562.105a3.632,3.632,0,0,0-1.134.343,1.149,1.149,0,0,0-.58,1.063,1.12,1.12,0,0,0,.356.927,1.34,1.34,0,0,0,.866.286A2.551,2.551,0,0,0-12.757-2a2.024,2.024,0,0,0,.708-1.731ZM-13.57-5.827a3.91,3.91,0,0,0,.993-.22.753.753,0,0,0,.536-.712.845.845,0,0,0-.409-.813,2.553,2.553,0,0,0-1.2-.224,1.563,1.563,0,0,0-1.257.439,1.827,1.827,0,0,0-.352.879h-2.417a3.676,3.676,0,0,1,.7-2.065,4.09,4.09,0,0,1,3.41-1.266,6.059,6.059,0,0,1,2.795.624A2.4,2.4,0,0,1-9.545-6.829v4.395q0,.457.018,1.107a1.392,1.392,0,0,0,.149.668.9.9,0,0,0,.369.29V0h-2.725a2.79,2.79,0,0,1-.158-.545q-.044-.255-.07-.58a5.146,5.146,0,0,1-1.2.958A3.6,3.6,0,0,1-14.985.3a3.143,3.143,0,0,1-2.149-.743,2.649,2.649,0,0,1-.848-2.1A2.732,2.732,0,0,1-16.62-5.106a6.049,6.049,0,0,1,2.2-.615ZM-2.118-9.809q.07,0,.119,0l.215.013v2.566q-.237-.026-.422-.035t-.3-.009a2.078,2.078,0,0,0-2.03.984,3.829,3.829,0,0,0-.29,1.705V0H-7.348V-9.58h2.391v1.67A5.3,5.3,0,0,1-3.946-9.22,2.752,2.752,0,0,1-2.118-9.809Zm6.979.018A3.548,3.548,0,0,1,7.818-8.429,5.53,5.53,0,0,1,8.886-4.913a6.181,6.181,0,0,1-1.055,3.7A3.42,3.42,0,0,1,4.887.255,3.418,3.418,0,0,1,2.979-.22,3.809,3.809,0,0,1,2.048-1.2V0H-.4V-12.937h2.5v4.605a3.655,3.655,0,0,1,1.046-1.02A3.107,3.107,0,0,1,4.86-9.791Zm-.642,7.98a1.719,1.719,0,0,0,1.5-.782,3.572,3.572,0,0,0,.536-2.057,4.636,4.636,0,0,0-.264-1.687A1.837,1.837,0,0,0,4.148-7.6,1.864,1.864,0,0,0,2.276-6.363a4.651,4.651,0,0,0-.264,1.705,3.572,3.572,0,0,0,.545,2.039A1.866,1.866,0,0,0,4.219-1.811Zm10.758.044a1.985,1.985,0,0,0,1.688-.782,3.639,3.639,0,0,0,.589-2.224,3.619,3.619,0,0,0-.589-2.219,1.99,1.99,0,0,0-1.687-.778,2,2,0,0,0-1.692.778,3.6,3.6,0,0,0-.593,2.219,3.619,3.619,0,0,0,.593,2.224A2,2,0,0,0,14.977-1.767Zm4.9-3.006a5.553,5.553,0,0,1-1.213,3.608,4.456,4.456,0,0,1-3.683,1.5,4.456,4.456,0,0,1-3.683-1.5A5.553,5.553,0,0,1,10.09-4.772,5.59,5.59,0,0,1,11.3-8.367a4.426,4.426,0,0,1,3.683-1.521,4.426,4.426,0,0,1,3.683,1.521A5.59,5.59,0,0,1,19.881-4.772Zm-1.9-8.728-2.672,2.628H13.5L15.188-13.5Zm9,3.691a3.7,3.7,0,0,1,2.43.778,3.163,3.163,0,0,1,.945,2.58V0H27.791V-5.827a2.659,2.659,0,0,0-.2-1.16,1.422,1.422,0,0,0-1.406-.738,1.744,1.744,0,0,0-1.749,1.081,3.713,3.713,0,0,0-.246,1.459V0h-2.5V-9.562h2.417v1.4a4.252,4.252,0,0,1,.914-1.063A3.177,3.177,0,0,1,26.982-9.809Z" transform="translate(573 2846)" fill="#01223d"/>
      <path id="Trazado_35450" data-name="Trazado 35450" d="M-93.028-10.705V-2.25h2.5A2.7,2.7,0,0,0-87.86-4.14a6.665,6.665,0,0,0,.413-2.47,6.08,6.08,0,0,0-.62-3.037,2.616,2.616,0,0,0-2.465-1.059Zm2.953-2.25a6.809,6.809,0,0,1,2,.281,4.277,4.277,0,0,1,2.206,1.644,5.765,5.765,0,0,1,.923,2.092A10.042,10.042,0,0,1-84.7-6.794a8.611,8.611,0,0,1-1.037,4.377A4.68,4.68,0,0,1-90.075,0h-5.581V-12.955Zm11,5.186a1.7,1.7,0,0,0-1.349.545,2.72,2.72,0,0,0-.6,1.477h3.894a2.181,2.181,0,0,0-.6-1.507A1.87,1.87,0,0,0-79.08-7.77Zm0-2.065a5.021,5.021,0,0,1,2.153.448,3.772,3.772,0,0,1,1.582,1.415,4.828,4.828,0,0,1,.729,1.978,12.771,12.771,0,0,1,.079,1.9h-6.557a2.381,2.381,0,0,0,.905,2.021,2.132,2.132,0,0,0,1.248.36,1.8,1.8,0,0,0,1.257-.439,2.087,2.087,0,0,0,.466-.659h2.558a3.178,3.178,0,0,1-.888,1.731,4.349,4.349,0,0,1-3.445,1.4A4.858,4.858,0,0,1-82.217-.861a4.75,4.75,0,0,1-1.4-3.832,5.326,5.326,0,0,1,1.261-3.814A4.312,4.312,0,0,1-79.08-9.835Zm11.435.026q.07,0,.119,0l.215.013v2.566q-.237-.026-.422-.035t-.3-.009a2.078,2.078,0,0,0-2.03.984,3.829,3.829,0,0,0-.29,1.705V0h-2.522V-9.58h2.391v1.67a5.3,5.3,0,0,1,1.011-1.31A2.752,2.752,0,0,1-67.645-9.809Zm4.377-.914h-2.54v-2.312h2.54Zm-2.54,1.143h2.54V0h-2.54Zm10.872,0h2.689L-55.7,0h-2.646l-3.437-9.58h2.813l2,7.066Zm9.387,4.922a2.722,2.722,0,0,1-.479.242,4.006,4.006,0,0,1-.664.171l-.562.105a3.632,3.632,0,0,0-1.134.343,1.149,1.149,0,0,0-.58,1.063,1.12,1.12,0,0,0,.356.927,1.34,1.34,0,0,0,.866.286A2.551,2.551,0,0,0-46.257-2a2.024,2.024,0,0,0,.708-1.731ZM-47.07-5.827a3.91,3.91,0,0,0,.993-.22.753.753,0,0,0,.536-.712.845.845,0,0,0-.409-.813,2.553,2.553,0,0,0-1.2-.224,1.563,1.563,0,0,0-1.257.439,1.827,1.827,0,0,0-.352.879h-2.417a3.676,3.676,0,0,1,.7-2.065,4.09,4.09,0,0,1,3.41-1.266,6.059,6.059,0,0,1,2.795.624,2.4,2.4,0,0,1,1.222,2.355v4.395q0,.457.018,1.107a1.392,1.392,0,0,0,.149.668.9.9,0,0,0,.369.29V0h-2.725a2.79,2.79,0,0,1-.158-.545q-.044-.255-.07-.58a5.146,5.146,0,0,1-1.2.958A3.6,3.6,0,0,1-48.485.3a3.143,3.143,0,0,1-2.149-.743,2.649,2.649,0,0,1-.848-2.1A2.732,2.732,0,0,1-50.12-5.106a6.049,6.049,0,0,1,2.2-.615Zm9.782-3.981a3.09,3.09,0,0,1,1.547.382,3.043,3.043,0,0,1,1.1,1.059v-4.57h2.54V0h-2.435V-1.327A3.533,3.533,0,0,1-35.758-.088,3.43,3.43,0,0,1-37.463.3a3.56,3.56,0,0,1-2.826-1.358,5.215,5.215,0,0,1-1.147-3.485A6,6,0,0,1-40.307-8.4,3.674,3.674,0,0,1-37.288-9.809Zm.545,8A1.849,1.849,0,0,0-35.125-2.6a3.5,3.5,0,0,0,.554-2.048,3.141,3.141,0,0,0-.888-2.514,1.91,1.91,0,0,0-1.266-.457,1.759,1.759,0,0,0-1.613.831,3.848,3.848,0,0,0-.514,2.061,3.813,3.813,0,0,0,.523,2.123A1.769,1.769,0,0,0-36.743-1.811Zm11.215.044a1.985,1.985,0,0,0,1.688-.782,3.639,3.639,0,0,0,.589-2.224,3.619,3.619,0,0,0-.589-2.219,1.99,1.99,0,0,0-1.687-.778,2,2,0,0,0-1.692.778,3.6,3.6,0,0,0-.593,2.219,3.619,3.619,0,0,0,.593,2.224A2,2,0,0,0-25.528-1.767Zm4.9-3.006a5.553,5.553,0,0,1-1.213,3.608,4.456,4.456,0,0,1-3.683,1.5,4.456,4.456,0,0,1-3.683-1.5,5.553,5.553,0,0,1-1.213-3.608A5.59,5.59,0,0,1-29.2-8.367a4.426,4.426,0,0,1,3.683-1.521,4.426,4.426,0,0,1,3.683,1.521A5.59,5.59,0,0,1-20.624-4.772Zm3.744,1.714a1.673,1.673,0,0,0,.343.949,2.317,2.317,0,0,0,1.723.5,2.626,2.626,0,0,0,1.173-.22.7.7,0,0,0,.435-.659.711.711,0,0,0-.352-.642,14.3,14.3,0,0,0-2.61-.756A5.437,5.437,0,0,1-18.461-4.9a2.191,2.191,0,0,1-.668-1.723A2.988,2.988,0,0,1-18.088-8.9a4.183,4.183,0,0,1,2.931-.954,5.378,5.378,0,0,1,2.922.716,3.068,3.068,0,0,1,1.3,2.474h-2.5a1.482,1.482,0,0,0-.272-.765,1.714,1.714,0,0,0-1.406-.51,2.021,2.021,0,0,0-1.165.255.734.734,0,0,0-.347.6.654.654,0,0,0,.369.624,15.98,15.98,0,0,0,2.61.694A4.8,4.8,0,0,1-11.413-4.7a2.415,2.415,0,0,1,.738,1.8A2.911,2.911,0,0,1-11.733-.576a4.976,4.976,0,0,1-3.274.9,4.929,4.929,0,0,1-3.335-.954,3.1,3.1,0,0,1-1.077-2.43ZM-.286-9.809a3.09,3.09,0,0,1,1.547.382,3.043,3.043,0,0,1,1.1,1.059v-4.57H4.9V0H2.465V-1.327A3.533,3.533,0,0,1,1.244-.088,3.43,3.43,0,0,1-.461.3,3.56,3.56,0,0,1-3.287-1.059,5.215,5.215,0,0,1-4.434-4.544,6,6,0,0,1-3.3-8.4,3.674,3.674,0,0,1-.286-9.809Zm.545,8A1.849,1.849,0,0,0,1.876-2.6,3.5,3.5,0,0,0,2.43-4.649a3.141,3.141,0,0,0-.888-2.514A1.91,1.91,0,0,0,.277-7.62a1.759,1.759,0,0,0-1.613.831A3.848,3.848,0,0,0-1.85-4.729a3.813,3.813,0,0,0,.523,2.123A1.769,1.769,0,0,0,.259-1.811Zm10.7-5.959a1.7,1.7,0,0,0-1.349.545A2.72,2.72,0,0,0,9-5.748H12.9a2.181,2.181,0,0,0-.6-1.507A1.87,1.87,0,0,0,10.956-7.77Zm0-2.065a5.021,5.021,0,0,1,2.153.448,3.772,3.772,0,0,1,1.582,1.415,4.828,4.828,0,0,1,.729,1.978A12.771,12.771,0,0,1,15.5-4.1H8.943a2.381,2.381,0,0,0,.905,2.021,2.132,2.132,0,0,0,1.248.36,1.8,1.8,0,0,0,1.257-.439,2.087,2.087,0,0,0,.466-.659h2.558a3.178,3.178,0,0,1-.888,1.731,4.349,4.349,0,0,1-3.445,1.4A4.858,4.858,0,0,1,7.818-.861a4.75,4.75,0,0,1-1.4-3.832A5.326,5.326,0,0,1,7.682-8.508,4.312,4.312,0,0,1,10.956-9.835ZM19.745,0h-2.5V-12.955h2.5ZM33.79-4.79a3.77,3.77,0,0,0-.505-1.96A1.759,1.759,0,0,0,31.645-7.6a1.865,1.865,0,0,0-1.872,1.292,4.9,4.9,0,0,0-.264,1.74A2.776,2.776,0,0,0,30.4-2.224a2.021,2.021,0,0,0,1.248.4,1.809,1.809,0,0,0,1.6-.809A3.771,3.771,0,0,0,33.79-4.79Zm-1.424-5a3.753,3.753,0,0,1,2.843,1.239,5.127,5.127,0,0,1,1.165,3.639,5.771,5.771,0,0,1-1.138,3.858A3.685,3.685,0,0,1,32.3.272a3.059,3.059,0,0,1-1.9-.571,3.683,3.683,0,0,1-.809-.923V3.771H27.119V-9.58h2.4v1.415a4.021,4.021,0,0,1,.861-.984A3.165,3.165,0,0,1,32.366-9.791Zm9.6,2.021a1.7,1.7,0,0,0-1.349.545,2.72,2.72,0,0,0-.6,1.477h3.894a2.181,2.181,0,0,0-.6-1.507A1.87,1.87,0,0,0,41.963-7.77Zm0-2.065a5.021,5.021,0,0,1,2.153.448A3.772,3.772,0,0,1,45.7-7.972a4.828,4.828,0,0,1,.729,1.978,12.771,12.771,0,0,1,.079,1.9H39.951a2.381,2.381,0,0,0,.905,2.021,2.132,2.132,0,0,0,1.248.36,1.8,1.8,0,0,0,1.257-.439,2.087,2.087,0,0,0,.466-.659h2.558A3.178,3.178,0,0,1,45.5-1.081a4.349,4.349,0,0,1-3.445,1.4A4.858,4.858,0,0,1,38.826-.861a4.75,4.75,0,0,1-1.4-3.832,5.326,5.326,0,0,1,1.261-3.814A4.312,4.312,0,0,1,41.963-9.835ZM47.21-7.708V-9.492h1.336v-2.672h2.479v2.672h1.556v1.784H51.025v5.063a1.14,1.14,0,0,0,.149.734,1.645,1.645,0,0,0,.914.145q.114,0,.242,0t.25-.013V.088L51.394.132a3.184,3.184,0,0,1-2.426-.615,1.832,1.832,0,0,1-.422-1.327v-5.9Zm12.182-2.1q.07,0,.119,0l.215.013v2.566q-.237-.026-.422-.035t-.3-.009a2.078,2.078,0,0,0-2.03.984,3.829,3.829,0,0,0-.29,1.705V0H54.163V-9.58h2.391v1.67a5.3,5.3,0,0,1,1.011-1.31A2.752,2.752,0,0,1,59.392-9.809Zm6.1,8.042a1.985,1.985,0,0,0,1.688-.782,3.639,3.639,0,0,0,.589-2.224,3.619,3.619,0,0,0-.589-2.219,1.99,1.99,0,0,0-1.687-.778,2,2,0,0,0-1.692.778,3.6,3.6,0,0,0-.593,2.219A3.619,3.619,0,0,0,63.8-2.549,2,2,0,0,0,65.492-1.767Zm4.9-3.006a5.553,5.553,0,0,1-1.213,3.608A4.456,4.456,0,0,1,65.5.334a4.456,4.456,0,0,1-3.683-1.5A5.553,5.553,0,0,1,60.6-4.772a5.59,5.59,0,0,1,1.213-3.595A4.426,4.426,0,0,1,65.5-9.888a4.426,4.426,0,0,1,3.683,1.521A5.59,5.59,0,0,1,70.4-4.772ZM68.5-13.5l-2.672,2.628H64.015L65.7-13.5ZM74.747,0h-2.5V-12.955h2.5Zm6.223-7.77a1.7,1.7,0,0,0-1.349.545,2.72,2.72,0,0,0-.6,1.477h3.894a2.181,2.181,0,0,0-.6-1.507A1.87,1.87,0,0,0,80.969-7.77Zm0-2.065a5.021,5.021,0,0,1,2.153.448A3.772,3.772,0,0,1,84.7-7.972a4.828,4.828,0,0,1,.729,1.978,12.771,12.771,0,0,1,.079,1.9H78.957a2.381,2.381,0,0,0,.905,2.021,2.132,2.132,0,0,0,1.248.36,1.8,1.8,0,0,0,1.257-.439,2.087,2.087,0,0,0,.466-.659H85.39A3.178,3.178,0,0,1,84.5-1.081a4.349,4.349,0,0,1-3.445,1.4A4.858,4.858,0,0,1,77.832-.861a4.75,4.75,0,0,1-1.4-3.832A5.326,5.326,0,0,1,77.7-8.508,4.312,4.312,0,0,1,80.969-9.835ZM91.5-1.767a1.985,1.985,0,0,0,1.688-.782,3.639,3.639,0,0,0,.589-2.224,3.619,3.619,0,0,0-.589-2.219A1.99,1.99,0,0,0,91.5-7.77a2,2,0,0,0-1.692.778,3.6,3.6,0,0,0-.593,2.219,3.619,3.619,0,0,0,.593,2.224A2,2,0,0,0,91.5-1.767Zm4.9-3.006A5.553,5.553,0,0,1,95.19-1.165a4.456,4.456,0,0,1-3.683,1.5,4.456,4.456,0,0,1-3.683-1.5,5.553,5.553,0,0,1-1.213-3.608,5.59,5.59,0,0,1,1.213-3.595,4.426,4.426,0,0,1,3.683-1.521A4.426,4.426,0,0,1,95.19-8.367,5.59,5.59,0,0,1,96.4-4.772Z" transform="translate(639 2889)" fill="#01223d"/>
      <path id="Trazado_35451" data-name="Trazado 35451" d="M-18.7-6.372A7.115,7.115,0,0,1-16.879-11.6a5.421,5.421,0,0,1,4.025-1.6,5.443,5.443,0,0,1,4.781,2.145,4.643,4.643,0,0,1,.9,2.417H-9.883a3.656,3.656,0,0,0-.677-1.406,2.753,2.753,0,0,0-2.188-.844A2.713,2.713,0,0,0-15.078-9.7a5.725,5.725,0,0,0-.853,3.371,5.025,5.025,0,0,0,.9,3.265,2.847,2.847,0,0,0,2.29,1.085,2.619,2.619,0,0,0,2.171-.932,4.047,4.047,0,0,0,.686-1.5H-7.2A5.815,5.815,0,0,1-9-.967,5.265,5.265,0,0,1-12.7.36,5.588,5.588,0,0,1-17.1-1.433,7.177,7.177,0,0,1-18.7-6.372ZM-.057-4.658a2.722,2.722,0,0,1-.479.242,4.006,4.006,0,0,1-.664.171l-.562.105A3.632,3.632,0,0,0-2.9-3.8a1.149,1.149,0,0,0-.58,1.063,1.12,1.12,0,0,0,.356.927,1.34,1.34,0,0,0,.866.286A2.551,2.551,0,0,0-.765-2,2.024,2.024,0,0,0-.057-3.727ZM-1.578-5.827a3.91,3.91,0,0,0,.993-.22.753.753,0,0,0,.536-.712.845.845,0,0,0-.409-.813,2.553,2.553,0,0,0-1.2-.224,1.563,1.563,0,0,0-1.257.439,1.827,1.827,0,0,0-.352.879H-5.682a3.676,3.676,0,0,1,.7-2.065,4.09,4.09,0,0,1,3.41-1.266,6.059,6.059,0,0,1,2.795.624A2.4,2.4,0,0,1,2.448-6.829v4.395q0,.457.018,1.107a1.392,1.392,0,0,0,.149.668.9.9,0,0,0,.369.29V0H.259A2.79,2.79,0,0,1,.1-.545Q.057-.8.031-1.125a5.146,5.146,0,0,1-1.2.958A3.6,3.6,0,0,1-2.993.3,3.143,3.143,0,0,1-5.142-.444a2.649,2.649,0,0,1-.848-2.1A2.732,2.732,0,0,1-4.627-5.106a6.049,6.049,0,0,1,2.2-.615ZM8.2-13.087q.237,0,.431.013l.527.04V-11q-.211-.026-.708-.04a.814.814,0,0,0-.686.22.8.8,0,0,0-.189.514v.809H9.224v1.767H7.581V0h-2.5V-7.726h-1.4V-9.492H5.058v-.615a3.237,3.237,0,0,1,.519-2.118Q6.122-13.087,8.2-13.087Zm6.24,5.317a1.7,1.7,0,0,0-1.349.545,2.72,2.72,0,0,0-.6,1.477h3.894a2.181,2.181,0,0,0-.6-1.507A1.87,1.87,0,0,0,14.445-7.77Zm0-2.065a5.021,5.021,0,0,1,2.153.448A3.772,3.772,0,0,1,18.18-7.972a4.828,4.828,0,0,1,.729,1.978,12.771,12.771,0,0,1,.079,1.9H12.432a2.381,2.381,0,0,0,.905,2.021,2.132,2.132,0,0,0,1.248.36,1.8,1.8,0,0,0,1.257-.439,2.087,2.087,0,0,0,.466-.659h2.558a3.178,3.178,0,0,1-.888,1.731,4.349,4.349,0,0,1-3.445,1.4A4.858,4.858,0,0,1,11.307-.861a4.75,4.75,0,0,1-1.4-3.832,5.326,5.326,0,0,1,1.261-3.814A4.312,4.312,0,0,1,14.445-9.835ZM17.618-13.5l-2.672,2.628H13.135L14.823-13.5Z" transform="translate(561 2933)" fill="#01223d"/>
      <path id="Trazado_35452" data-name="Trazado 35452" d="M-61.458-1.934a3.481,3.481,0,0,0,.9-.114,4.463,4.463,0,0,0,.606-.22l-1.31-1.248,1.4-1.459,1.31,1.248a6.12,6.12,0,0,0,.431-1.107A6.372,6.372,0,0,0-57.933-6.5a5.533,5.533,0,0,0-.892-3.371,3.054,3.054,0,0,0-2.606-1.191A3.178,3.178,0,0,0-64-9.914,5.219,5.219,0,0,0-64.956-6.5a4.727,4.727,0,0,0,1.371,3.814A3.2,3.2,0,0,0-61.458-1.934Zm6.231-4.755a8.619,8.619,0,0,1-.422,2.9,4.832,4.832,0,0,1-1.011,1.854l1.494,1.4L-56.58.94-58.144-.536a6.52,6.52,0,0,1-1.23.606,6.619,6.619,0,0,1-2.083.29,5.959,5.959,0,0,1-4.184-1.512,6.853,6.853,0,0,1-2-5.344,6.793,6.793,0,0,1,2.057-5.37,6.071,6.071,0,0,1,4.175-1.485,5.987,5.987,0,0,1,4.219,1.573A6.584,6.584,0,0,1-55.226-6.688Zm4.359-2.892v5.774a3.023,3.023,0,0,0,.193,1.23,1.338,1.338,0,0,0,1.345.729,1.758,1.758,0,0,0,1.758-1.037,3.754,3.754,0,0,0,.246-1.485V-9.58h2.54V0h-2.435V-1.354q-.035.044-.176.264a1.764,1.764,0,0,1-.334.387,3.488,3.488,0,0,1-1.138.721,3.879,3.879,0,0,1-1.288.193A2.87,2.87,0,0,1-53.02-1.318a5.852,5.852,0,0,1-.413-2.487V-9.58Zm8.534,0h2.54V0h-2.54Zm4.315-3.92-2.672,2.628H-42.5l1.688-2.628Zm11.355,3.709a3.335,3.335,0,0,1,1.248.246,2.784,2.784,0,0,1,1.116.861,2.752,2.752,0,0,1,.545,1.23,8.5,8.5,0,0,1,.088,1.415L-23.682,0h-2.566V-6.1a2,2,0,0,0-.176-.9,1.249,1.249,0,0,0-1.23-.668,1.44,1.44,0,0,0-1.433.861,2.7,2.7,0,0,0-.2,1.1V0h-2.522V-5.7a3.2,3.2,0,0,0-.176-1.239,1.227,1.227,0,0,0-1.239-.694,1.479,1.479,0,0,0-1.441.694,2.675,2.675,0,0,0-.2,1.178V0h-2.54V-9.562h2.435v1.4A4.031,4.031,0,0,1-34.1-9.229a3.007,3.007,0,0,1,1.89-.562,2.989,2.989,0,0,1,1.775.483,2.812,2.812,0,0,1,.826,1.151A3.185,3.185,0,0,1-28.384-9.4,3.728,3.728,0,0,1-26.662-9.791Zm7.875-.932h-2.54v-2.312h2.54Zm-2.54,1.143h2.54V0h-2.54Zm10.688,3.437A2.223,2.223,0,0,0-11-7.11a1.511,1.511,0,0,0-1.31-.58,1.725,1.725,0,0,0-1.731,1.257,5.255,5.255,0,0,0-.246,1.775,4.832,4.832,0,0,0,.246,1.7,1.671,1.671,0,0,0,1.688,1.2A1.488,1.488,0,0,0-11.1-2.241a2.362,2.362,0,0,0,.448-1.23H-8.1A4.191,4.191,0,0,1-8.925-1.31,4.016,4.016,0,0,1-12.415.334a4.082,4.082,0,0,1-3.4-1.371,5.548,5.548,0,0,1-1.09-3.56,5.63,5.63,0,0,1,1.2-3.841,4.191,4.191,0,0,1,3.322-1.371A5,5,0,0,1-9.431-9,3.761,3.761,0,0,1-8.073-6.144Zm9.571,1.485a2.722,2.722,0,0,1-.479.242,4.006,4.006,0,0,1-.664.171l-.562.105A3.632,3.632,0,0,0-3.907-3.8a1.149,1.149,0,0,0-.58,1.063,1.12,1.12,0,0,0,.356.927,1.34,1.34,0,0,0,.866.286A2.551,2.551,0,0,0-1.775-2a2.024,2.024,0,0,0,.708-1.731ZM-2.588-5.827a3.91,3.91,0,0,0,.993-.22.753.753,0,0,0,.536-.712.845.845,0,0,0-.409-.813,2.553,2.553,0,0,0-1.2-.224,1.563,1.563,0,0,0-1.257.439,1.827,1.827,0,0,0-.352.879H-6.693a3.676,3.676,0,0,1,.7-2.065A4.09,4.09,0,0,1-2.58-9.809a6.059,6.059,0,0,1,2.795.624A2.4,2.4,0,0,1,1.437-6.829v4.395q0,.457.018,1.107A1.392,1.392,0,0,0,1.6-.659a.9.9,0,0,0,.369.29V0H-.751A2.79,2.79,0,0,1-.91-.545Q-.954-.8-.98-1.125a5.146,5.146,0,0,1-1.2.958A3.6,3.6,0,0,1-4,.3,3.143,3.143,0,0,1-6.152-.444,2.649,2.649,0,0,1-7-2.549,2.732,2.732,0,0,1-5.638-5.106a6.049,6.049,0,0,1,2.2-.615ZM13.838-9.791A3.548,3.548,0,0,1,16.8-8.429a5.53,5.53,0,0,1,1.068,3.516,6.181,6.181,0,0,1-1.055,3.7A3.42,3.42,0,0,1,13.865.255,3.418,3.418,0,0,1,11.958-.22a3.809,3.809,0,0,1-.932-.984V0H8.574V-12.937h2.5v4.605a3.655,3.655,0,0,1,1.046-1.02A3.107,3.107,0,0,1,13.838-9.791ZM13.2-1.811a1.719,1.719,0,0,0,1.5-.782,3.572,3.572,0,0,0,.536-2.057,4.636,4.636,0,0,0-.264-1.687A1.837,1.837,0,0,0,13.126-7.6a1.864,1.864,0,0,0-1.872,1.239,4.651,4.651,0,0,0-.264,1.705,3.572,3.572,0,0,0,.545,2.039A1.866,1.866,0,0,0,13.2-1.811ZM24.939-4.658a2.722,2.722,0,0,1-.479.242,4.006,4.006,0,0,1-.664.171l-.562.105A3.632,3.632,0,0,0,22.1-3.8a1.149,1.149,0,0,0-.58,1.063,1.12,1.12,0,0,0,.356.927,1.34,1.34,0,0,0,.866.286A2.551,2.551,0,0,0,24.231-2a2.024,2.024,0,0,0,.708-1.731ZM23.418-5.827a3.91,3.91,0,0,0,.993-.22.753.753,0,0,0,.536-.712.845.845,0,0,0-.409-.813,2.553,2.553,0,0,0-1.2-.224,1.563,1.563,0,0,0-1.257.439,1.827,1.827,0,0,0-.352.879H19.314a3.676,3.676,0,0,1,.7-2.065,4.09,4.09,0,0,1,3.41-1.266,6.059,6.059,0,0,1,2.795.624,2.4,2.4,0,0,1,1.222,2.355v4.395q0,.457.018,1.107a1.392,1.392,0,0,0,.149.668.9.9,0,0,0,.369.29V0H25.255A2.79,2.79,0,0,1,25.1-.545q-.044-.255-.07-.58a5.146,5.146,0,0,1-1.2.958A3.6,3.6,0,0,1,22,.3a3.143,3.143,0,0,1-2.149-.743,2.649,2.649,0,0,1-.848-2.1,2.732,2.732,0,0,1,1.362-2.558,6.049,6.049,0,0,1,2.2-.615ZM26.547-13.5l-2.672,2.628H22.065L23.752-13.5ZM31.619-3.059a1.673,1.673,0,0,0,.343.949,2.317,2.317,0,0,0,1.723.5,2.626,2.626,0,0,0,1.173-.22.7.7,0,0,0,.435-.659.711.711,0,0,0-.352-.642,14.3,14.3,0,0,0-2.61-.756A5.437,5.437,0,0,1,30.037-4.9a2.191,2.191,0,0,1-.668-1.723A2.988,2.988,0,0,1,30.41-8.9a4.183,4.183,0,0,1,2.931-.954,5.378,5.378,0,0,1,2.922.716,3.068,3.068,0,0,1,1.3,2.474h-2.5a1.482,1.482,0,0,0-.272-.765,1.714,1.714,0,0,0-1.406-.51,2.021,2.021,0,0,0-1.165.255.734.734,0,0,0-.347.6.654.654,0,0,0,.369.624,15.98,15.98,0,0,0,2.61.694A4.8,4.8,0,0,1,37.085-4.7a2.415,2.415,0,0,1,.738,1.8A2.911,2.911,0,0,1,36.765-.576a4.976,4.976,0,0,1-3.274.9,4.929,4.929,0,0,1-3.335-.954,3.1,3.1,0,0,1-1.077-2.43Zm10.635-7.664h-2.54v-2.312h2.54ZM39.713-9.58h2.54V0h-2.54ZM50.4-6.144a2.223,2.223,0,0,0-.36-.967,1.511,1.511,0,0,0-1.31-.58A1.725,1.725,0,0,0,47-6.434a5.255,5.255,0,0,0-.246,1.775A4.832,4.832,0,0,0,47-2.962a1.671,1.671,0,0,0,1.688,1.2,1.488,1.488,0,0,0,1.248-.475,2.362,2.362,0,0,0,.448-1.23h2.558a4.191,4.191,0,0,1-.826,2.162A4.016,4.016,0,0,1,48.625.334a4.082,4.082,0,0,1-3.4-1.371,5.548,5.548,0,0,1-1.09-3.56,5.63,5.63,0,0,1,1.2-3.841,4.191,4.191,0,0,1,3.322-1.371A5,5,0,0,1,51.609-9a3.761,3.761,0,0,1,1.358,2.856Zm9.571,1.485a2.722,2.722,0,0,1-.479.242,4.006,4.006,0,0,1-.664.171l-.562.105a3.632,3.632,0,0,0-1.134.343,1.149,1.149,0,0,0-.58,1.063,1.12,1.12,0,0,0,.356.927,1.34,1.34,0,0,0,.866.286A2.551,2.551,0,0,0,59.265-2a2.024,2.024,0,0,0,.708-1.731ZM58.452-5.827a3.91,3.91,0,0,0,.993-.22.753.753,0,0,0,.536-.712.845.845,0,0,0-.409-.813,2.553,2.553,0,0,0-1.2-.224,1.563,1.563,0,0,0-1.257.439,1.827,1.827,0,0,0-.352.879H54.347a3.676,3.676,0,0,1,.7-2.065,4.09,4.09,0,0,1,3.41-1.266,6.059,6.059,0,0,1,2.795.624,2.4,2.4,0,0,1,1.222,2.355v4.395q0,.457.018,1.107a1.392,1.392,0,0,0,.149.668.9.9,0,0,0,.369.29V0H60.289a2.79,2.79,0,0,1-.158-.545q-.044-.255-.07-.58a5.146,5.146,0,0,1-1.2.958A3.6,3.6,0,0,1,57.037.3a3.143,3.143,0,0,1-2.149-.743,2.649,2.649,0,0,1-.848-2.1A2.732,2.732,0,0,1,55.4-5.106a6.049,6.049,0,0,1,2.2-.615Z" transform="translate(610 2976)" fill="#01223d"/>
      <path id="Trazado_35453" data-name="Trazado 35453" d="M-20.927-10.705v3.48h3.067a3.419,3.419,0,0,0,1.371-.211,1.443,1.443,0,0,0,.809-1.459,1.61,1.61,0,0,0-.782-1.582,2.956,2.956,0,0,0-1.318-.229Zm3.709-2.25a5.92,5.92,0,0,1,2.1.334,3.275,3.275,0,0,1,1.244.905,4.011,4.011,0,0,1,.668,1.09,3.552,3.552,0,0,1,.246,1.362,3.881,3.881,0,0,1-.466,1.815,2.6,2.6,0,0,1-1.538,1.261A2.419,2.419,0,0,1-13.7-5.164a4.262,4.262,0,0,1,.374,2.026v.87a6.656,6.656,0,0,0,.07,1.2,1.082,1.082,0,0,0,.492.738V0h-2.979q-.123-.431-.176-.694a6.379,6.379,0,0,1-.114-1.116l-.018-1.2A2.353,2.353,0,0,0-16.5-4.667a2.4,2.4,0,0,0-1.63-.413h-2.795V0h-2.646V-12.955ZM-7.058-7.77a1.7,1.7,0,0,0-1.349.545,2.72,2.72,0,0,0-.6,1.477h3.894a2.181,2.181,0,0,0-.6-1.507A1.87,1.87,0,0,0-7.058-7.77Zm0-2.065A5.021,5.021,0,0,1-4.9-9.387,3.772,3.772,0,0,1-3.322-7.972a4.828,4.828,0,0,1,.729,1.978,12.771,12.771,0,0,1,.079,1.9H-9.07a2.381,2.381,0,0,0,.905,2.021,2.132,2.132,0,0,0,1.248.36A1.8,1.8,0,0,0-5.66-2.153a2.087,2.087,0,0,0,.466-.659h2.558a3.178,3.178,0,0,1-.888,1.731A4.349,4.349,0,0,1-6.97.316,4.858,4.858,0,0,1-10.2-.861a4.75,4.75,0,0,1-1.4-3.832,5.326,5.326,0,0,1,1.261-3.814A4.312,4.312,0,0,1-7.058-9.835ZM1.125-3.059a1.673,1.673,0,0,0,.343.949,2.317,2.317,0,0,0,1.723.5,2.626,2.626,0,0,0,1.173-.22A.7.7,0,0,0,4.8-2.487a.711.711,0,0,0-.352-.642,14.3,14.3,0,0,0-2.61-.756A5.437,5.437,0,0,1-.457-4.9a2.191,2.191,0,0,1-.668-1.723A2.988,2.988,0,0,1-.083-8.9a4.183,4.183,0,0,1,2.931-.954,5.378,5.378,0,0,1,2.922.716,3.068,3.068,0,0,1,1.3,2.474h-2.5a1.482,1.482,0,0,0-.272-.765,1.714,1.714,0,0,0-1.406-.51,2.021,2.021,0,0,0-1.165.255.734.734,0,0,0-.347.6.654.654,0,0,0,.369.624,15.98,15.98,0,0,0,2.61.694A4.8,4.8,0,0,1,6.592-4.7,2.415,2.415,0,0,1,7.33-2.9,2.911,2.911,0,0,1,6.271-.576,4.976,4.976,0,0,1,3,.325,4.929,4.929,0,0,1-.338-.628a3.1,3.1,0,0,1-1.077-2.43ZM8.2-7.708V-9.492H9.536v-2.672h2.479v2.672H13.57v1.784H12.015v5.063a1.14,1.14,0,0,0,.149.734,1.645,1.645,0,0,0,.914.145q.114,0,.242,0t.25-.013V.088L12.384.132A3.184,3.184,0,0,1,9.958-.483a1.832,1.832,0,0,1-.422-1.327v-5.9ZM19.477-1.767a1.985,1.985,0,0,0,1.688-.782,3.639,3.639,0,0,0,.589-2.224,3.619,3.619,0,0,0-.589-2.219,1.99,1.99,0,0,0-1.687-.778,2,2,0,0,0-1.692.778,3.6,3.6,0,0,0-.593,2.219,3.619,3.619,0,0,0,.593,2.224A2,2,0,0,0,19.477-1.767Zm4.9-3.006a5.553,5.553,0,0,1-1.213,3.608,4.456,4.456,0,0,1-3.683,1.5,4.456,4.456,0,0,1-3.683-1.5A5.553,5.553,0,0,1,14.59-4.772,5.59,5.59,0,0,1,15.8-8.367a4.426,4.426,0,0,1,3.683-1.521,4.426,4.426,0,0,1,3.683,1.521A5.59,5.59,0,0,1,24.381-4.772Z" transform="translate(565 3020)" fill="#01223d"/>
      <rect id="Rectángulo_4823" data-name="Rectángulo 4823" width="856" height="56" transform="translate(500 3049)" fill="#472ea6"/>
      <path id="Trazado_34538" data-name="Trazado 34538" d="M8575.719,1336v413" transform="translate(-7693 1356)" fill="#fff" stroke="#fff" stroke-width="2"/>
      <path id="Trazado_34539" data-name="Trazado 34539" d="M8575.719,1336v413" transform="translate(-7449 1356)" fill="#fff" stroke="#fff" stroke-width="2"/>
      <path id="Trazado_35468" data-name="Trazado 35468" d="M-134.556-12.955v2.294h-3.876V0h-2.725V-10.661h-3.894v-2.294Zm4.351,11.188a1.985,1.985,0,0,0,1.688-.782,3.639,3.639,0,0,0,.589-2.224,3.619,3.619,0,0,0-.589-2.219,1.99,1.99,0,0,0-1.687-.778,2,2,0,0,0-1.692.778,3.6,3.6,0,0,0-.593,2.219,3.619,3.619,0,0,0,.593,2.224A2,2,0,0,0-130.206-1.767Zm4.9-3.006a5.553,5.553,0,0,1-1.213,3.608A4.456,4.456,0,0,1-130.2.334a4.456,4.456,0,0,1-3.683-1.5,5.553,5.553,0,0,1-1.213-3.608,5.59,5.59,0,0,1,1.213-3.595A4.426,4.426,0,0,1-130.2-9.888a4.426,4.426,0,0,1,3.683,1.521A5.59,5.59,0,0,1-125.3-4.772Zm.809-2.936V-9.492h1.336v-2.672h2.479v2.672h1.556v1.784h-1.556v5.063a1.14,1.14,0,0,0,.149.734,1.645,1.645,0,0,0,.914.145q.114,0,.242,0t.25-.013V.088l-1.187.044a3.184,3.184,0,0,1-2.426-.615,1.832,1.832,0,0,1-.422-1.327v-5.9Zm12.261,3.05a2.722,2.722,0,0,1-.479.242,4.006,4.006,0,0,1-.664.171l-.562.105a3.632,3.632,0,0,0-1.134.343,1.149,1.149,0,0,0-.58,1.063,1.12,1.12,0,0,0,.356.927,1.34,1.34,0,0,0,.866.286A2.551,2.551,0,0,0-112.939-2a2.024,2.024,0,0,0,.708-1.731Zm-1.521-1.169a3.91,3.91,0,0,0,.993-.22.753.753,0,0,0,.536-.712.845.845,0,0,0-.409-.813,2.553,2.553,0,0,0-1.2-.224,1.563,1.563,0,0,0-1.257.439,1.827,1.827,0,0,0-.352.879h-2.417a3.676,3.676,0,0,1,.7-2.065,4.09,4.09,0,0,1,3.41-1.266,6.059,6.059,0,0,1,2.795.624,2.4,2.4,0,0,1,1.222,2.355v4.395q0,.457.018,1.107a1.392,1.392,0,0,0,.149.668.9.9,0,0,0,.369.29V0h-2.725a2.79,2.79,0,0,1-.158-.545q-.044-.255-.07-.58a5.146,5.146,0,0,1-1.2.958A3.6,3.6,0,0,1-115.167.3a3.143,3.143,0,0,1-2.149-.743,2.649,2.649,0,0,1-.848-2.1A2.732,2.732,0,0,1-116.8-5.106a6.049,6.049,0,0,1,2.2-.615ZM-104.946,0h-2.5V-12.955h2.5Zm11.224-7.77a1.7,1.7,0,0,0-1.349.545,2.72,2.72,0,0,0-.6,1.477h3.894a2.181,2.181,0,0,0-.6-1.507A1.87,1.87,0,0,0-93.722-7.77Zm0-2.065a5.021,5.021,0,0,1,2.153.448,3.772,3.772,0,0,1,1.582,1.415,4.828,4.828,0,0,1,.729,1.978,12.771,12.771,0,0,1,.079,1.9h-6.557a2.381,2.381,0,0,0,.905,2.021,2.132,2.132,0,0,0,1.248.36,1.8,1.8,0,0,0,1.257-.439,2.087,2.087,0,0,0,.466-.659H-89.3a3.178,3.178,0,0,1-.888,1.731,4.349,4.349,0,0,1-3.445,1.4A4.858,4.858,0,0,1-96.86-.861a4.75,4.75,0,0,1-1.4-3.832A5.326,5.326,0,0,1-97-8.508,4.312,4.312,0,0,1-93.722-9.835ZM-88.431,0l3.27-4.852-3.129-4.711h3.067l1.6,2.777,1.564-2.777h2.979L-82.226-4.9l3.27,4.9h-3.12l-1.652-2.874L-85.39,0Zm17.552-4.79a3.77,3.77,0,0,0-.505-1.96A1.759,1.759,0,0,0-73.024-7.6,1.865,1.865,0,0,0-74.9-6.311a4.9,4.9,0,0,0-.264,1.74,2.776,2.776,0,0,0,.888,2.347,2.021,2.021,0,0,0,1.248.4,1.809,1.809,0,0,0,1.6-.809A3.771,3.771,0,0,0-70.879-4.79Zm-1.424-5A3.753,3.753,0,0,1-69.46-8.552,5.127,5.127,0,0,1-68.3-4.913a5.771,5.771,0,0,1-1.138,3.858A3.685,3.685,0,0,1-72.365.272a3.059,3.059,0,0,1-1.9-.571,3.683,3.683,0,0,1-.809-.923V3.771H-77.55V-9.58h2.4v1.415a4.021,4.021,0,0,1,.861-.984A3.165,3.165,0,0,1-72.3-9.791Zm10.116,8.024A1.985,1.985,0,0,0-60.5-2.549a3.639,3.639,0,0,0,.589-2.224A3.619,3.619,0,0,0-60.5-6.992a1.99,1.99,0,0,0-1.687-.778,2,2,0,0,0-1.692.778,3.6,3.6,0,0,0-.593,2.219,3.619,3.619,0,0,0,.593,2.224A2,2,0,0,0-62.187-1.767Zm4.9-3.006A5.553,5.553,0,0,1-58.5-1.165a4.456,4.456,0,0,1-3.683,1.5,4.456,4.456,0,0,1-3.683-1.5,5.553,5.553,0,0,1-1.213-3.608,5.59,5.59,0,0,1,1.213-3.595,4.426,4.426,0,0,1,3.683-1.521A4.426,4.426,0,0,1-58.5-8.367,5.59,5.59,0,0,1-57.283-4.772Zm7-5.036q.07,0,.119,0l.215.013v2.566q-.237-.026-.422-.035t-.3-.009a2.078,2.078,0,0,0-2.03.984,3.829,3.829,0,0,0-.29,1.705V0h-2.522V-9.58h2.391v1.67a5.3,5.3,0,0,1,1.011-1.31A2.752,2.752,0,0,1-50.287-9.809Zm.817,2.1V-9.492h1.336v-2.672h2.479v2.672H-44.1v1.784h-1.556v5.063a1.14,1.14,0,0,0,.149.734,1.645,1.645,0,0,0,.914.145q.114,0,.242,0t.25-.013V.088l-1.187.044a3.184,3.184,0,0,1-2.426-.615,1.832,1.832,0,0,1-.422-1.327v-5.9Zm12.261,3.05a2.722,2.722,0,0,1-.479.242,4.006,4.006,0,0,1-.664.171l-.562.105a3.632,3.632,0,0,0-1.134.343,1.149,1.149,0,0,0-.58,1.063,1.12,1.12,0,0,0,.356.927,1.34,1.34,0,0,0,.866.286A2.551,2.551,0,0,0-37.916-2a2.024,2.024,0,0,0,.708-1.731Zm-1.521-1.169a3.91,3.91,0,0,0,.993-.22.753.753,0,0,0,.536-.712.845.845,0,0,0-.409-.813,2.553,2.553,0,0,0-1.2-.224,1.563,1.563,0,0,0-1.257.439,1.827,1.827,0,0,0-.352.879h-2.417a3.676,3.676,0,0,1,.7-2.065,4.09,4.09,0,0,1,3.41-1.266,6.059,6.059,0,0,1,2.795.624A2.4,2.4,0,0,1-34.7-6.829v4.395q0,.457.018,1.107a1.392,1.392,0,0,0,.149.668.9.9,0,0,0,.369.29V0h-2.725a2.79,2.79,0,0,1-.158-.545q-.044-.255-.07-.58a5.146,5.146,0,0,1-1.2.958A3.6,3.6,0,0,1-40.144.3a3.143,3.143,0,0,1-2.149-.743,2.649,2.649,0,0,1-.848-2.1,2.732,2.732,0,0,1,1.362-2.558,6.049,6.049,0,0,1,2.2-.615Zm9.782-3.981a3.09,3.09,0,0,1,1.547.382,3.043,3.043,0,0,1,1.1,1.059v-4.57h2.54V0H-26.2V-1.327A3.533,3.533,0,0,1-27.417-.088,3.43,3.43,0,0,1-29.123.3a3.56,3.56,0,0,1-2.826-1.358A5.215,5.215,0,0,1-33.1-4.544,6,6,0,0,1-31.966-8.4,3.674,3.674,0,0,1-28.947-9.809Zm.545,8A1.849,1.849,0,0,0-26.785-2.6a3.5,3.5,0,0,0,.554-2.048,3.141,3.141,0,0,0-.888-2.514,1.91,1.91,0,0,0-1.266-.457A1.759,1.759,0,0,0-30-6.79a3.848,3.848,0,0,0-.514,2.061,3.813,3.813,0,0,0,.523,2.123A1.769,1.769,0,0,0-28.4-1.811Zm11.215.044A1.985,1.985,0,0,0-15.5-2.549a3.639,3.639,0,0,0,.589-2.224A3.619,3.619,0,0,0-15.5-6.992a1.99,1.99,0,0,0-1.687-.778,2,2,0,0,0-1.692.778,3.6,3.6,0,0,0-.593,2.219,3.619,3.619,0,0,0,.593,2.224A2,2,0,0,0-17.187-1.767Zm4.9-3.006A5.553,5.553,0,0,1-13.5-1.165a4.456,4.456,0,0,1-3.683,1.5,4.456,4.456,0,0,1-3.683-1.5,5.553,5.553,0,0,1-1.213-3.608,5.59,5.59,0,0,1,1.213-3.595,4.426,4.426,0,0,1,3.683-1.521A4.426,4.426,0,0,1-13.5-8.367,5.59,5.59,0,0,1-12.283-4.772Zm12.076.114a2.722,2.722,0,0,1-.479.242,4.006,4.006,0,0,1-.664.171l-.562.105A3.632,3.632,0,0,0-3.045-3.8a1.149,1.149,0,0,0-.58,1.063,1.12,1.12,0,0,0,.356.927,1.34,1.34,0,0,0,.866.286A2.551,2.551,0,0,0-.914-2,2.024,2.024,0,0,0-.207-3.727ZM-1.727-5.827a3.91,3.91,0,0,0,.993-.22A.753.753,0,0,0-.2-6.759a.845.845,0,0,0-.409-.813,2.553,2.553,0,0,0-1.2-.224,1.563,1.563,0,0,0-1.257.439,1.827,1.827,0,0,0-.352.879H-5.832a3.676,3.676,0,0,1,.7-2.065,4.09,4.09,0,0,1,3.41-1.266,6.059,6.059,0,0,1,2.795.624A2.4,2.4,0,0,1,2.3-6.829v4.395q0,.457.018,1.107a1.392,1.392,0,0,0,.149.668.9.9,0,0,0,.369.29V0H.11A2.79,2.79,0,0,1-.048-.545q-.044-.255-.07-.58a5.146,5.146,0,0,1-1.2.958A3.6,3.6,0,0,1-3.142.3,3.143,3.143,0,0,1-5.291-.444a2.649,2.649,0,0,1-.848-2.1A2.732,2.732,0,0,1-4.777-5.106a6.049,6.049,0,0,1,2.2-.615Zm10.89-.545A7.115,7.115,0,0,1,10.982-11.6a5.421,5.421,0,0,1,4.025-1.6,5.443,5.443,0,0,1,4.781,2.145,4.643,4.643,0,0,1,.9,2.417H17.978a3.656,3.656,0,0,0-.677-1.406,2.753,2.753,0,0,0-2.188-.844A2.713,2.713,0,0,0,12.784-9.7a5.725,5.725,0,0,0-.853,3.371,5.025,5.025,0,0,0,.9,3.265,2.847,2.847,0,0,0,2.29,1.085,2.619,2.619,0,0,0,2.171-.932,4.047,4.047,0,0,0,.686-1.5h2.681a5.815,5.815,0,0,1-1.8,3.445A5.265,5.265,0,0,1,15.157.36a5.588,5.588,0,0,1-4.395-1.793A7.177,7.177,0,0,1,9.163-6.372ZM26.82-1.767a1.985,1.985,0,0,0,1.688-.782A3.639,3.639,0,0,0,29.1-4.772a3.619,3.619,0,0,0-.589-2.219A1.99,1.99,0,0,0,26.82-7.77a2,2,0,0,0-1.692.778,3.6,3.6,0,0,0-.593,2.219,3.619,3.619,0,0,0,.593,2.224A2,2,0,0,0,26.82-1.767Zm4.9-3.006a5.553,5.553,0,0,1-1.213,3.608,4.456,4.456,0,0,1-3.683,1.5,4.456,4.456,0,0,1-3.683-1.5,5.553,5.553,0,0,1-1.213-3.608,5.59,5.59,0,0,1,1.213-3.595,4.426,4.426,0,0,1,3.683-1.521,4.426,4.426,0,0,1,3.683,1.521A5.59,5.59,0,0,1,31.724-4.772ZM36.075,0h-2.5V-12.955h2.5Zm6.741-1.767A1.985,1.985,0,0,0,44.5-2.549a3.639,3.639,0,0,0,.589-2.224A3.619,3.619,0,0,0,44.5-6.992a1.99,1.99,0,0,0-1.687-.778,2,2,0,0,0-1.692.778,3.6,3.6,0,0,0-.593,2.219,3.619,3.619,0,0,0,.593,2.224A2,2,0,0,0,42.816-1.767Zm4.9-3.006a5.553,5.553,0,0,1-1.213,3.608,4.456,4.456,0,0,1-3.683,1.5,4.456,4.456,0,0,1-3.683-1.5,5.553,5.553,0,0,1-1.213-3.608,5.59,5.59,0,0,1,1.213-3.595,4.426,4.426,0,0,1,3.683-1.521,4.426,4.426,0,0,1,3.683,1.521A5.59,5.59,0,0,1,47.72-4.772Zm12.5-5.019a3.335,3.335,0,0,1,1.248.246,2.784,2.784,0,0,1,1.116.861,2.752,2.752,0,0,1,.545,1.23,8.5,8.5,0,0,1,.088,1.415L63.2,0H60.631V-6.1a2,2,0,0,0-.176-.9,1.249,1.249,0,0,0-1.23-.668,1.44,1.44,0,0,0-1.433.861,2.7,2.7,0,0,0-.2,1.1V0H55.068V-5.7a3.2,3.2,0,0,0-.176-1.239,1.227,1.227,0,0,0-1.239-.694,1.479,1.479,0,0,0-1.441.694,2.675,2.675,0,0,0-.2,1.178V0h-2.54V-9.562H51.9v1.4a4.031,4.031,0,0,1,.879-1.063,3.007,3.007,0,0,1,1.89-.562,2.989,2.989,0,0,1,1.775.483,2.812,2.812,0,0,1,.826,1.151A3.185,3.185,0,0,1,58.5-9.4,3.728,3.728,0,0,1,60.218-9.791Zm10.477,0a3.548,3.548,0,0,1,2.958,1.362A5.53,5.53,0,0,1,74.72-4.913a6.181,6.181,0,0,1-1.055,3.7A3.42,3.42,0,0,1,70.721.255,3.418,3.418,0,0,1,68.814-.22a3.809,3.809,0,0,1-.932-.984V0H65.43V-12.937h2.5v4.605a3.655,3.655,0,0,1,1.046-1.02A3.107,3.107,0,0,1,70.695-9.791Zm-.642,7.98a1.719,1.719,0,0,0,1.5-.782,3.572,3.572,0,0,0,.536-2.057,4.636,4.636,0,0,0-.264-1.687A1.837,1.837,0,0,0,69.983-7.6a1.864,1.864,0,0,0-1.872,1.239,4.651,4.651,0,0,0-.264,1.705,3.572,3.572,0,0,0,.545,2.039A1.866,1.866,0,0,0,70.053-1.811Zm9.035-8.912h-2.54v-2.312h2.54ZM76.548-9.58h2.54V0h-2.54ZM86.8-4.658a2.722,2.722,0,0,1-.479.242,4.006,4.006,0,0,1-.664.171l-.562.105a3.632,3.632,0,0,0-1.134.343,1.149,1.149,0,0,0-.58,1.063,1.12,1.12,0,0,0,.356.927,1.34,1.34,0,0,0,.866.286A2.551,2.551,0,0,0,86.089-2,2.024,2.024,0,0,0,86.8-3.727ZM85.276-5.827a3.91,3.91,0,0,0,.993-.22.753.753,0,0,0,.536-.712.845.845,0,0,0-.409-.813A2.553,2.553,0,0,0,85.2-7.8a1.563,1.563,0,0,0-1.257.439,1.827,1.827,0,0,0-.352.879H81.171a3.676,3.676,0,0,1,.7-2.065,4.09,4.09,0,0,1,3.41-1.266,6.059,6.059,0,0,1,2.795.624A2.4,2.4,0,0,1,89.3-6.829v4.395q0,.457.018,1.107a1.392,1.392,0,0,0,.149.668.9.9,0,0,0,.369.29V0H87.113a2.79,2.79,0,0,1-.158-.545q-.044-.255-.07-.58a5.146,5.146,0,0,1-1.2.958A3.6,3.6,0,0,1,83.861.3a3.143,3.143,0,0,1-2.149-.743,2.649,2.649,0,0,1-.848-2.1,2.732,2.732,0,0,1,1.362-2.558,6.049,6.049,0,0,1,2.2-.615ZM97.167-9.686a18.841,18.841,0,0,1,2.03-3.48h1.89l-.536.984a14.657,14.657,0,0,0-1.538,4.254,16.829,16.829,0,0,0-.281,3.182A15.032,15.032,0,0,0,99.514.2a22.573,22.573,0,0,0,1.617,3.428H99.277l-.624-.853a11.423,11.423,0,0,1-1.292-2.3A13.115,13.115,0,0,1,96.139-4.9,11.931,11.931,0,0,1,97.167-9.686Zm5.555-3.252h9.185v2.276h-6.5v2.979H111.1v2.25h-5.687V0h-2.689Zm16.726,11A3.092,3.092,0,0,0,122-3.12a5.3,5.3,0,0,0,.945-3.375A5.305,5.305,0,0,0,122-9.866a3.088,3.088,0,0,0-2.553-1.191,3.129,3.129,0,0,0-2.566,1.187,5.25,5.25,0,0,0-.958,3.375,5.25,5.25,0,0,0,.958,3.375A3.129,3.129,0,0,0,119.448-1.934ZM125.653-6.5a7.006,7.006,0,0,1-1.96,5.344A5.649,5.649,0,0,1,119.448.36,5.649,5.649,0,0,1,115.2-1.151,6.989,6.989,0,0,1,113.234-6.5a6.852,6.852,0,0,1,1.969-5.344,5.649,5.649,0,0,1,4.245-1.512,5.649,5.649,0,0,1,4.245,1.512A6.869,6.869,0,0,1,125.653-6.5Zm4.693-4.21v2.856h3.182a2.653,2.653,0,0,0,1.384-.321,1.219,1.219,0,0,0,.532-1.138,1.159,1.159,0,0,0-.7-1.2,4.976,4.976,0,0,0-1.547-.2Zm0,5V-2.25h3.182a3.123,3.123,0,0,0,1.327-.229,1.627,1.627,0,0,0,.861-1.617,1.389,1.389,0,0,0-.835-1.389,3.345,3.345,0,0,0-1.31-.22Zm3.709-7.251a4,4,0,0,1,3.375,1.38,3.283,3.283,0,0,1,.6,1.978,2.892,2.892,0,0,1-.6,1.907,3.085,3.085,0,0,1-.984.738,2.888,2.888,0,0,1,1.5,1.143,3.424,3.424,0,0,1,.505,1.9,3.773,3.773,0,0,1-.58,2.065,3.58,3.58,0,0,1-.923,1.02,3.6,3.6,0,0,1-1.472.65A9.075,9.075,0,0,1,133.633,0h-5.871V-12.955Zm7.409-.211a18.841,18.841,0,0,1,2.03,3.48A11.931,11.931,0,0,1,144.523-4.9,13.115,13.115,0,0,1,143.3.475a11.423,11.423,0,0,1-1.292,2.3l-.624.853h-1.854A22.573,22.573,0,0,0,141.148.2a15.032,15.032,0,0,0,.782-4.948,16.829,16.829,0,0,0-.281-3.182,14.657,14.657,0,0,0-1.538-4.254l-.536-.984Z" transform="translate(687 3083)" fill="#fff"/>
      <path id="Trazado_35454" data-name="Trazado 35454" d="M-43.321-8.912v-1.213a6.445,6.445,0,0,0,2.391-.558,2.751,2.751,0,0,0,1.011-1.85h1.248V0h-1.687V-8.912ZM-34.471,0A7.34,7.34,0,0,1-33.8-2.83a5.443,5.443,0,0,1,2.281-2.188l1.688-.976a7.945,7.945,0,0,0,1.591-1.125,2.311,2.311,0,0,0,.721-1.67,2.331,2.331,0,0,0-.659-1.745,2.4,2.4,0,0,0-1.758-.646,2.3,2.3,0,0,0-2.25,1.23,4.405,4.405,0,0,0-.369,1.828h-1.608a5.649,5.649,0,0,1,.606-2.681,3.806,3.806,0,0,1,3.63-1.828,3.934,3.934,0,0,1,3.16,1.169,3.911,3.911,0,0,1,1,2.6,3.537,3.537,0,0,1-1.063,2.584,10.412,10.412,0,0,1-2.206,1.512l-1.2.668A7.8,7.8,0,0,0-31.6-3.19a3.3,3.3,0,0,0-1.107,1.7h6.873V0Zm10.986-1.916h1.837V0h-1.837Zm5.854-1.125A2,2,0,0,0-16.62-1.23a2.238,2.238,0,0,0,1.09.264A2.449,2.449,0,0,0-13.6-1.912a7.774,7.774,0,0,0,1.134-3.836,2.932,2.932,0,0,1-1.305,1.173,4.151,4.151,0,0,1-1.674.338A3.748,3.748,0,0,1-18.321-5.37,4.1,4.1,0,0,1-19.38-8.288,4.672,4.672,0,0,1-18.334-11.3a3.723,3.723,0,0,1,3.085-1.3,3.794,3.794,0,0,1,3.8,2.479,8.737,8.737,0,0,1,.58,3.41,11.237,11.237,0,0,1-.694,4.1Q-12.718.352-15.469.352a3.779,3.779,0,0,1-2.8-.967,3.306,3.306,0,0,1-.958-2.426Zm2.4-2.584a2.694,2.694,0,0,0,1.718-.62,2.625,2.625,0,0,0,.778-2.167,2.771,2.771,0,0,0-.7-2.07,2.444,2.444,0,0,0-1.78-.681,2.323,2.323,0,0,0-1.841.778,3.043,3.043,0,0,0-.681,2.079,2.981,2.981,0,0,0,.6,1.956A2.333,2.333,0,0,0-15.231-5.625ZM-.6-12.375V-11A14.7,14.7,0,0,0-2.21-8.947,20.764,20.764,0,0,0-3.99-5.8a21.5,21.5,0,0,0-1.16,3q-.255.87-.659,2.8H-7.559A21.539,21.539,0,0,1-4.922-7.172a22.7,22.7,0,0,1,2.531-3.612H-9.352v-1.591ZM2.391-3.041A2,2,0,0,0,3.4-1.23a2.238,2.238,0,0,0,1.09.264,2.449,2.449,0,0,0,1.934-.945A7.774,7.774,0,0,0,7.559-5.748,2.932,2.932,0,0,1,6.253-4.575a4.151,4.151,0,0,1-1.674.338A3.748,3.748,0,0,1,1.7-5.37,4.1,4.1,0,0,1,.642-8.288,4.672,4.672,0,0,1,1.688-11.3a3.723,3.723,0,0,1,3.085-1.3,3.794,3.794,0,0,1,3.8,2.479,8.737,8.737,0,0,1,.58,3.41,11.237,11.237,0,0,1-.694,4.1Q7.3.352,4.553.352a3.779,3.779,0,0,1-2.8-.967A3.306,3.306,0,0,1,.791-3.041Zm2.4-2.584a2.694,2.694,0,0,0,1.718-.62,2.625,2.625,0,0,0,.778-2.167,2.771,2.771,0,0,0-.7-2.07,2.444,2.444,0,0,0-1.78-.681,2.323,2.323,0,0,0-1.841.778,3.043,3.043,0,0,0-.681,2.079,2.981,2.981,0,0,0,.6,1.956A2.333,2.333,0,0,0,4.79-5.625Zm6.759,3.709h1.837V0H11.549Zm8.728-10.723a3.477,3.477,0,0,1,2.94,1.094,3.691,3.691,0,0,1,.831,2.254H22.482a2.885,2.885,0,0,0-.448-1.169A2,2,0,0,0,20.3-11.25a2.4,2.4,0,0,0-2.109,1.226,7.065,7.065,0,0,0-.87,3.511,3.44,3.44,0,0,1,1.371-1.2,3.954,3.954,0,0,1,1.688-.352,4.105,4.105,0,0,1,2.76,1.011,3.755,3.755,0,0,1,1.178,3.015A4.573,4.573,0,0,1,23.2-1,3.932,3.932,0,0,1,20.021.325a4.08,4.08,0,0,1-3.05-1.34q-1.283-1.34-1.283-4.513A12.146,12.146,0,0,1,16.26-9.51Q17.358-12.639,20.276-12.639ZM20.162-1.081A2.171,2.171,0,0,0,22.03-1.92a3.245,3.245,0,0,0,.62-1.982A3.388,3.388,0,0,0,22.1-5.744a2.194,2.194,0,0,0-2.013-.875,2.624,2.624,0,0,0-1.789.677A2.574,2.574,0,0,0,17.525-3.9a2.974,2.974,0,0,0,.7,2.008A2.419,2.419,0,0,0,20.162-1.081Zm7.251-1.96A2,2,0,0,0,28.424-1.23a2.238,2.238,0,0,0,1.09.264,2.449,2.449,0,0,0,1.934-.945,7.774,7.774,0,0,0,1.134-3.836,2.932,2.932,0,0,1-1.305,1.173,4.151,4.151,0,0,1-1.674.338A3.748,3.748,0,0,1,26.723-5.37a4.1,4.1,0,0,1-1.059-2.918A4.672,4.672,0,0,1,26.71-11.3a3.723,3.723,0,0,1,3.085-1.3,3.794,3.794,0,0,1,3.8,2.479,8.737,8.737,0,0,1,.58,3.41,11.237,11.237,0,0,1-.694,4.1Q32.326.352,29.575.352a3.779,3.779,0,0,1-2.8-.967,3.306,3.306,0,0,1-.958-2.426Zm2.4-2.584a2.694,2.694,0,0,0,1.718-.62,2.625,2.625,0,0,0,.778-2.167,2.771,2.771,0,0,0-.7-2.07,2.444,2.444,0,0,0-1.78-.681,2.323,2.323,0,0,0-1.841.778,3.043,3.043,0,0,0-.681,2.079,2.981,2.981,0,0,0,.6,1.956A2.333,2.333,0,0,0,29.813-5.625Zm7.611,2.584A2,2,0,0,0,38.435-1.23a2.238,2.238,0,0,0,1.09.264,2.449,2.449,0,0,0,1.934-.945,7.774,7.774,0,0,0,1.134-3.836,2.932,2.932,0,0,1-1.305,1.173,4.151,4.151,0,0,1-1.674.338A3.748,3.748,0,0,1,36.734-5.37a4.1,4.1,0,0,1-1.059-2.918A4.672,4.672,0,0,1,36.721-11.3a3.723,3.723,0,0,1,3.085-1.3,3.794,3.794,0,0,1,3.8,2.479,8.737,8.737,0,0,1,.58,3.41,11.237,11.237,0,0,1-.694,4.1Q42.337.352,39.586.352a3.779,3.779,0,0,1-2.8-.967,3.306,3.306,0,0,1-.958-2.426Zm2.4-2.584a2.694,2.694,0,0,0,1.718-.62,2.625,2.625,0,0,0,.778-2.167,2.771,2.771,0,0,0-.7-2.07,2.444,2.444,0,0,0-1.78-.681A2.323,2.323,0,0,0,38-10.384a3.043,3.043,0,0,0-.681,2.079,2.981,2.981,0,0,0,.6,1.956A2.333,2.333,0,0,0,39.823-5.625Z" transform="translate(1037 2802)" fill="#01223d"/>
      <path id="Trazado_35455" data-name="Trazado 35455" d="M-37.815-3.208a2.193,2.193,0,0,0,1.257,1.872,3.033,3.033,0,0,0,1.3.264,2.442,2.442,0,0,0,2.083-.9A3.22,3.22,0,0,0-32.5-3.955a2.6,2.6,0,0,0-.8-2.039,2.791,2.791,0,0,0-1.929-.721,2.906,2.906,0,0,0-1.4.316,3,3,0,0,0-1,.879L-39-5.6l.958-6.776H-31.5v1.529h-5.353l-.536,3.5a3.931,3.931,0,0,1,.835-.5,4.238,4.238,0,0,1,1.626-.29A4.16,4.16,0,0,1-32-7.022a3.692,3.692,0,0,1,1.2,2.83,4.856,4.856,0,0,1-1.1,3.146A4.266,4.266,0,0,1-35.416.316a4.483,4.483,0,0,1-2.72-.866,3.434,3.434,0,0,1-1.323-2.659Zm9.325,1.292h1.837V0H-28.49Zm8.728-10.723a3.477,3.477,0,0,1,2.94,1.094,3.691,3.691,0,0,1,.831,2.254h-1.564A2.885,2.885,0,0,0-18-10.459a2,2,0,0,0-1.731-.791,2.4,2.4,0,0,0-2.109,1.226,7.065,7.065,0,0,0-.87,3.511,3.44,3.44,0,0,1,1.371-1.2,3.954,3.954,0,0,1,1.688-.352A4.105,4.105,0,0,1-16.9-7.049a3.755,3.755,0,0,1,1.178,3.015A4.573,4.573,0,0,1-16.835-1,3.932,3.932,0,0,1-20.017.325a4.08,4.08,0,0,1-3.05-1.34q-1.283-1.34-1.283-4.513a12.146,12.146,0,0,1,.571-3.981Q-22.68-12.639-19.762-12.639Zm-.114,11.558a2.171,2.171,0,0,0,1.868-.839,3.245,3.245,0,0,0,.62-1.982,3.388,3.388,0,0,0-.554-1.841,2.194,2.194,0,0,0-2.013-.875,2.624,2.624,0,0,0-1.789.677A2.574,2.574,0,0,0-22.513-3.9a2.974,2.974,0,0,0,.7,2.008A2.419,2.419,0,0,0-19.876-1.081ZM-9.751-12.639a3.477,3.477,0,0,1,2.94,1.094A3.691,3.691,0,0,1-5.981-9.29H-7.545a2.885,2.885,0,0,0-.448-1.169,2,2,0,0,0-1.731-.791,2.4,2.4,0,0,0-2.109,1.226,7.065,7.065,0,0,0-.87,3.511,3.44,3.44,0,0,1,1.371-1.2A3.954,3.954,0,0,1-9.646-8.06a4.105,4.105,0,0,1,2.76,1.011A3.755,3.755,0,0,1-5.708-4.034,4.573,4.573,0,0,1-6.825-1,3.932,3.932,0,0,1-10.006.325a4.08,4.08,0,0,1-3.05-1.34q-1.283-1.34-1.283-4.513a12.146,12.146,0,0,1,.571-3.981Q-12.669-12.639-9.751-12.639ZM-9.866-1.081A2.171,2.171,0,0,0-8-1.92,3.245,3.245,0,0,0-7.378-3.9a3.388,3.388,0,0,0-.554-1.841,2.194,2.194,0,0,0-2.013-.875,2.624,2.624,0,0,0-1.789.677A2.574,2.574,0,0,0-12.5-3.9a2.974,2.974,0,0,0,.7,2.008A2.419,2.419,0,0,0-9.866-1.081ZM-.11-7.312A2.219,2.219,0,0,0,1.525-7.9,1.9,1.9,0,0,0,2.114-9.29a1.836,1.836,0,0,0-.562-1.292,2.268,2.268,0,0,0-1.714-.589,2.078,2.078,0,0,0-1.652.589,2.042,2.042,0,0,0-.51,1.38,1.646,1.646,0,0,0,.659,1.389A2.5,2.5,0,0,0-.11-7.312Zm.1,6.231a2.785,2.785,0,0,0,1.824-.593,2.154,2.154,0,0,0,.725-1.771A2.294,2.294,0,0,0,1.789-5.3,2.862,2.862,0,0,0-.127-5.933a2.657,2.657,0,0,0-1.85.646A2.286,2.286,0,0,0-2.694-3.5a2.436,2.436,0,0,0,.655,1.7A2.616,2.616,0,0,0-.013-1.081Zm-2.25-5.625a3.146,3.146,0,0,1-1.028-.659,2.49,2.49,0,0,1-.694-1.828,3.284,3.284,0,0,1,1.02-2.417A3.931,3.931,0,0,1-.075-12.621a4.014,4.014,0,0,1,2.839.954A2.95,2.95,0,0,1,3.792-9.439a2.913,2.913,0,0,1-.6,1.907,3.58,3.58,0,0,1-1.037.809,4.025,4.025,0,0,1,1.23.826,3.182,3.182,0,0,1,.835,2.285A3.9,3.9,0,0,1,3.107-.8,4.182,4.182,0,0,1-.048.36a4.875,4.875,0,0,1-3.107-1,3.462,3.462,0,0,1-1.27-2.9A3.383,3.383,0,0,1-3.88-5.462,3.4,3.4,0,0,1-2.263-6.706Zm8.807,4.79H8.38V0H6.543ZM14.682.343A3.955,3.955,0,0,1,11.443-.883a4.55,4.55,0,0,1-1.006-2.984h1.652a4.1,4.1,0,0,0,.457,1.775A2.4,2.4,0,0,0,14.77-1.1a2.915,2.915,0,0,0,2-.668,2.193,2.193,0,0,0,.756-1.723,2.005,2.005,0,0,0-.8-1.819,4.025,4.025,0,0,0-2.21-.519q-.158,0-.321,0t-.33.013v-1.4q.246.026.413.035t.36.009a3.3,3.3,0,0,0,1.459-.281,1.787,1.787,0,0,0,1-1.758,1.716,1.716,0,0,0-.668-1.45,2.492,2.492,0,0,0-1.556-.51A2.306,2.306,0,0,0,12.7-10.107a3.656,3.656,0,0,0-.378,1.652H10.753a4.747,4.747,0,0,1,.563-2.391,3.547,3.547,0,0,1,3.4-1.758,4.61,4.61,0,0,1,2.979.857,3.013,3.013,0,0,1,1.055,2.483,2.771,2.771,0,0,1-.624,1.881,2.621,2.621,0,0,1-1,.7,2.731,2.731,0,0,1,1.551,1.05,3.178,3.178,0,0,1,.558,1.9A3.878,3.878,0,0,1,18.048-.791,4.68,4.68,0,0,1,14.682.343ZM20.58,0a7.34,7.34,0,0,1,.672-2.83,5.443,5.443,0,0,1,2.281-2.188l1.688-.976a7.945,7.945,0,0,0,1.591-1.125,2.311,2.311,0,0,0,.721-1.67,2.331,2.331,0,0,0-.659-1.745,2.4,2.4,0,0,0-1.758-.646,2.3,2.3,0,0,0-2.25,1.23A4.405,4.405,0,0,0,22.5-8.121H20.887a5.649,5.649,0,0,1,.606-2.681,3.806,3.806,0,0,1,3.63-1.828,3.934,3.934,0,0,1,3.16,1.169,3.911,3.911,0,0,1,1,2.6,3.537,3.537,0,0,1-1.063,2.584,10.412,10.412,0,0,1-2.206,1.512l-1.2.668a7.8,7.8,0,0,0-1.354.905,3.3,3.3,0,0,0-1.107,1.7h6.873V0ZM32.418-3.041A2,2,0,0,0,33.429-1.23a2.238,2.238,0,0,0,1.09.264,2.449,2.449,0,0,0,1.934-.945,7.774,7.774,0,0,0,1.134-3.836,2.932,2.932,0,0,1-1.305,1.173,4.151,4.151,0,0,1-1.674.338A3.748,3.748,0,0,1,31.729-5.37a4.1,4.1,0,0,1-1.059-2.918A4.672,4.672,0,0,1,31.715-11.3,3.723,3.723,0,0,1,34.8-12.6a3.794,3.794,0,0,1,3.8,2.479,8.737,8.737,0,0,1,.58,3.41,11.237,11.237,0,0,1-.694,4.1Q37.332.352,34.581.352a3.779,3.779,0,0,1-2.8-.967,3.306,3.306,0,0,1-.958-2.426Zm2.4-2.584a2.694,2.694,0,0,0,1.718-.62,2.625,2.625,0,0,0,.778-2.167,2.771,2.771,0,0,0-.7-2.07,2.444,2.444,0,0,0-1.78-.681,2.323,2.323,0,0,0-1.841.778,3.043,3.043,0,0,0-.681,2.079,2.981,2.981,0,0,0,.6,1.956A2.333,2.333,0,0,0,34.818-5.625Z" transform="translate(1042 2846)" fill="#01223d"/>
      <path id="Trazado_35456" data-name="Trazado 35456" d="M-39.476,0A7.34,7.34,0,0,1-38.8-2.83a5.443,5.443,0,0,1,2.281-2.188l1.688-.976a7.945,7.945,0,0,0,1.591-1.125,2.311,2.311,0,0,0,.721-1.67,2.331,2.331,0,0,0-.659-1.745,2.4,2.4,0,0,0-1.758-.646,2.3,2.3,0,0,0-2.25,1.23,4.405,4.405,0,0,0-.369,1.828h-1.608a5.649,5.649,0,0,1,.606-2.681,3.806,3.806,0,0,1,3.63-1.828,3.934,3.934,0,0,1,3.16,1.169,3.911,3.911,0,0,1,1,2.6,3.537,3.537,0,0,1-1.063,2.584,10.412,10.412,0,0,1-2.206,1.512l-1.2.668A7.8,7.8,0,0,0-36.6-3.19a3.3,3.3,0,0,0-1.107,1.7h6.873V0ZM-28.49-1.916h1.837V0H-28.49Zm5.854-1.125A2,2,0,0,0-21.625-1.23a2.238,2.238,0,0,0,1.09.264A2.449,2.449,0,0,0-18.6-1.912a7.774,7.774,0,0,0,1.134-3.836,2.932,2.932,0,0,1-1.305,1.173,4.151,4.151,0,0,1-1.674.338A3.748,3.748,0,0,1-23.326-5.37a4.1,4.1,0,0,1-1.059-2.918A4.672,4.672,0,0,1-23.339-11.3a3.723,3.723,0,0,1,3.085-1.3,3.794,3.794,0,0,1,3.8,2.479,8.737,8.737,0,0,1,.58,3.41,11.237,11.237,0,0,1-.694,4.1Q-17.723.352-20.474.352a3.779,3.779,0,0,1-2.8-.967,3.306,3.306,0,0,1-.958-2.426Zm2.4-2.584a2.694,2.694,0,0,0,1.718-.62,2.625,2.625,0,0,0,.778-2.167,2.771,2.771,0,0,0-.7-2.07,2.444,2.444,0,0,0-1.78-.681,2.323,2.323,0,0,0-1.841.778,3.043,3.043,0,0,0-.681,2.079,2.981,2.981,0,0,0,.6,1.956A2.333,2.333,0,0,0-20.237-5.625Zm10.116-1.687A2.219,2.219,0,0,0-8.486-7.9,1.9,1.9,0,0,0-7.9-9.29a1.836,1.836,0,0,0-.562-1.292,2.268,2.268,0,0,0-1.714-.589,2.078,2.078,0,0,0-1.652.589,2.042,2.042,0,0,0-.51,1.38,1.646,1.646,0,0,0,.659,1.389A2.5,2.5,0,0,0-10.121-7.312Zm.1,6.231A2.785,2.785,0,0,0-8.2-1.674a2.154,2.154,0,0,0,.725-1.771A2.294,2.294,0,0,0-8.222-5.3a2.862,2.862,0,0,0-1.916-.633,2.657,2.657,0,0,0-1.85.646A2.286,2.286,0,0,0-12.7-3.5a2.436,2.436,0,0,0,.655,1.7A2.616,2.616,0,0,0-10.024-1.081Zm-2.25-5.625A3.146,3.146,0,0,1-13.3-7.365,2.49,2.49,0,0,1-14-9.193a3.284,3.284,0,0,1,1.02-2.417,3.931,3.931,0,0,1,2.892-1.011,4.014,4.014,0,0,1,2.839.954A2.95,2.95,0,0,1-6.218-9.439a2.913,2.913,0,0,1-.6,1.907,3.58,3.58,0,0,1-1.037.809,4.025,4.025,0,0,1,1.23.826,3.182,3.182,0,0,1,.835,2.285A3.9,3.9,0,0,1-6.9-.8,4.182,4.182,0,0,1-10.059.36a4.875,4.875,0,0,1-3.107-1,3.462,3.462,0,0,1-1.27-2.9,3.383,3.383,0,0,1,.545-1.929A3.4,3.4,0,0,1-12.274-6.706ZM-4.443,0a7.34,7.34,0,0,1,.672-2.83A5.443,5.443,0,0,1-1.49-5.019L.2-5.994A7.945,7.945,0,0,0,1.789-7.119a2.311,2.311,0,0,0,.721-1.67,2.331,2.331,0,0,0-.659-1.745A2.4,2.4,0,0,0,.092-11.18a2.3,2.3,0,0,0-2.25,1.23,4.405,4.405,0,0,0-.369,1.828H-4.135A5.649,5.649,0,0,1-3.529-10.8,3.806,3.806,0,0,1,.1-12.63a3.934,3.934,0,0,1,3.16,1.169,3.911,3.911,0,0,1,1,2.6A3.537,3.537,0,0,1,3.195-6.275,10.412,10.412,0,0,1,.989-4.764l-1.2.668a7.8,7.8,0,0,0-1.354.905,3.3,3.3,0,0,0-1.107,1.7H4.2V0ZM6.543-1.916H8.38V0H6.543ZM10.569,0a7.34,7.34,0,0,1,.672-2.83,5.443,5.443,0,0,1,2.281-2.188l1.688-.976A7.945,7.945,0,0,0,16.8-7.119a2.311,2.311,0,0,0,.721-1.67,2.331,2.331,0,0,0-.659-1.745A2.4,2.4,0,0,0,15.1-11.18a2.3,2.3,0,0,0-2.25,1.23,4.405,4.405,0,0,0-.369,1.828H10.876a5.649,5.649,0,0,1,.606-2.681,3.806,3.806,0,0,1,3.63-1.828,3.934,3.934,0,0,1,3.16,1.169,3.911,3.911,0,0,1,1,2.6,3.537,3.537,0,0,1-1.063,2.584A10.412,10.412,0,0,1,16-4.764L14.8-4.1a7.8,7.8,0,0,0-1.354.905,3.3,3.3,0,0,0-1.107,1.7h6.873V0ZM22.241-3.208A2.193,2.193,0,0,0,23.5-1.336a3.033,3.033,0,0,0,1.3.264,2.442,2.442,0,0,0,2.083-.9,3.22,3.22,0,0,0,.677-1.986,2.6,2.6,0,0,0-.8-2.039,2.791,2.791,0,0,0-1.929-.721,2.906,2.906,0,0,0-1.4.316,3,3,0,0,0-1,.879L21.054-5.6l.958-6.776h6.539v1.529H23.2l-.536,3.5a3.931,3.931,0,0,1,.835-.5,4.238,4.238,0,0,1,1.626-.29,4.16,4.16,0,0,1,2.936,1.116,3.692,3.692,0,0,1,1.2,2.83,4.856,4.856,0,0,1-1.1,3.146A4.266,4.266,0,0,1,24.64.316a4.483,4.483,0,0,1-2.72-.866A3.434,3.434,0,0,1,20.6-3.208ZM35.978-4.456v-5.7l-4.034,5.7ZM36,0V-3.076h-5.52V-4.623l5.766-8h1.336v8.165h1.854v1.38H37.586V0Z" transform="translate(1042 2889)" fill="#01223d"/>
      <path id="Trazado_35457" data-name="Trazado 35457" d="M-39.476,0A7.34,7.34,0,0,1-38.8-2.83a5.443,5.443,0,0,1,2.281-2.188l1.688-.976a7.945,7.945,0,0,0,1.591-1.125,2.311,2.311,0,0,0,.721-1.67,2.331,2.331,0,0,0-.659-1.745,2.4,2.4,0,0,0-1.758-.646,2.3,2.3,0,0,0-2.25,1.23,4.405,4.405,0,0,0-.369,1.828h-1.608a5.649,5.649,0,0,1,.606-2.681,3.806,3.806,0,0,1,3.63-1.828,3.934,3.934,0,0,1,3.16,1.169,3.911,3.911,0,0,1,1,2.6,3.537,3.537,0,0,1-1.063,2.584,10.412,10.412,0,0,1-2.206,1.512l-1.2.668A7.8,7.8,0,0,0-36.6-3.19a3.3,3.3,0,0,0-1.107,1.7h6.873V0ZM-28.49-1.916h1.837V0H-28.49ZM-24.464,0a7.34,7.34,0,0,1,.672-2.83,5.443,5.443,0,0,1,2.281-2.188l1.688-.976a7.945,7.945,0,0,0,1.591-1.125,2.311,2.311,0,0,0,.721-1.67,2.331,2.331,0,0,0-.659-1.745,2.4,2.4,0,0,0-1.758-.646,2.3,2.3,0,0,0-2.25,1.23,4.405,4.405,0,0,0-.369,1.828h-1.608A5.649,5.649,0,0,1-23.55-10.8a3.806,3.806,0,0,1,3.63-1.828,3.934,3.934,0,0,1,3.16,1.169,3.911,3.911,0,0,1,1,2.6,3.537,3.537,0,0,1-1.063,2.584,10.412,10.412,0,0,1-2.206,1.512l-1.2.668a7.8,7.8,0,0,0-1.354.905,3.3,3.3,0,0,0-1.107,1.7h6.873V0ZM-5.6-12.375V-11A14.7,14.7,0,0,0-7.216-8.947,20.764,20.764,0,0,0-9-5.8a21.5,21.5,0,0,0-1.16,3q-.255.87-.659,2.8h-1.749A21.539,21.539,0,0,1-9.927-7.172,22.7,22.7,0,0,1-7.4-10.784h-6.961v-1.591ZM-4.443,0a7.34,7.34,0,0,1,.672-2.83A5.443,5.443,0,0,1-1.49-5.019L.2-5.994A7.945,7.945,0,0,0,1.789-7.119a2.311,2.311,0,0,0,.721-1.67,2.331,2.331,0,0,0-.659-1.745A2.4,2.4,0,0,0,.092-11.18a2.3,2.3,0,0,0-2.25,1.23,4.405,4.405,0,0,0-.369,1.828H-4.135A5.649,5.649,0,0,1-3.529-10.8,3.806,3.806,0,0,1,.1-12.63a3.934,3.934,0,0,1,3.16,1.169,3.911,3.911,0,0,1,1,2.6A3.537,3.537,0,0,1,3.195-6.275,10.412,10.412,0,0,1,.989-4.764l-1.2.668a7.8,7.8,0,0,0-1.354.905,3.3,3.3,0,0,0-1.107,1.7H4.2V0ZM6.543-1.916H8.38V0H6.543Zm8.358-5.4A2.219,2.219,0,0,0,16.537-7.9a1.9,1.9,0,0,0,.589-1.393,1.836,1.836,0,0,0-.562-1.292,2.268,2.268,0,0,0-1.714-.589,2.078,2.078,0,0,0-1.652.589,2.042,2.042,0,0,0-.51,1.38,1.646,1.646,0,0,0,.659,1.389A2.5,2.5,0,0,0,14.9-7.312ZM15-1.081a2.785,2.785,0,0,0,1.824-.593,2.154,2.154,0,0,0,.725-1.771A2.294,2.294,0,0,0,16.8-5.3a2.862,2.862,0,0,0-1.916-.633,2.657,2.657,0,0,0-1.85.646A2.286,2.286,0,0,0,12.318-3.5a2.436,2.436,0,0,0,.655,1.7A2.616,2.616,0,0,0,15-1.081Zm-2.25-5.625a3.146,3.146,0,0,1-1.028-.659,2.49,2.49,0,0,1-.694-1.828,3.284,3.284,0,0,1,1.02-2.417,3.931,3.931,0,0,1,2.892-1.011,4.014,4.014,0,0,1,2.839.954A2.95,2.95,0,0,1,18.8-9.439a2.913,2.913,0,0,1-.6,1.907,3.58,3.58,0,0,1-1.037.809A4.025,4.025,0,0,1,18.4-5.9a3.182,3.182,0,0,1,.835,2.285A3.9,3.9,0,0,1,18.119-.8,4.182,4.182,0,0,1,14.963.36a4.875,4.875,0,0,1-3.107-1,3.462,3.462,0,0,1-1.27-2.9,3.383,3.383,0,0,1,.545-1.929A3.4,3.4,0,0,1,12.749-6.706ZM29.43-12.375V-11a14.7,14.7,0,0,0-1.613,2.048A20.764,20.764,0,0,0,26.038-5.8a21.5,21.5,0,0,0-1.16,3q-.255.87-.659,2.8H22.469a21.539,21.539,0,0,1,2.637-7.172,22.7,22.7,0,0,1,2.531-3.612H20.676v-1.591Zm6.548,7.919v-5.7l-4.034,5.7ZM36,0V-3.076h-5.52V-4.623l5.766-8h1.336v8.165h1.854v1.38H37.586V0Z" transform="translate(1042 2933)" fill="#01223d"/>
      <path id="Trazado_35458" data-name="Trazado 35458" d="M-39.476,0A7.34,7.34,0,0,1-38.8-2.83a5.443,5.443,0,0,1,2.281-2.188l1.688-.976a7.945,7.945,0,0,0,1.591-1.125,2.311,2.311,0,0,0,.721-1.67,2.331,2.331,0,0,0-.659-1.745,2.4,2.4,0,0,0-1.758-.646,2.3,2.3,0,0,0-2.25,1.23,4.405,4.405,0,0,0-.369,1.828h-1.608a5.649,5.649,0,0,1,.606-2.681,3.806,3.806,0,0,1,3.63-1.828,3.934,3.934,0,0,1,3.16,1.169,3.911,3.911,0,0,1,1,2.6,3.537,3.537,0,0,1-1.063,2.584,10.412,10.412,0,0,1-2.206,1.512l-1.2.668A7.8,7.8,0,0,0-36.6-3.19a3.3,3.3,0,0,0-1.107,1.7h6.873V0ZM-28.49-1.916h1.837V0H-28.49ZM-24.464,0a7.34,7.34,0,0,1,.672-2.83,5.443,5.443,0,0,1,2.281-2.188l1.688-.976a7.945,7.945,0,0,0,1.591-1.125,2.311,2.311,0,0,0,.721-1.67,2.331,2.331,0,0,0-.659-1.745,2.4,2.4,0,0,0-1.758-.646,2.3,2.3,0,0,0-2.25,1.23,4.405,4.405,0,0,0-.369,1.828h-1.608A5.649,5.649,0,0,1-23.55-10.8a3.806,3.806,0,0,1,3.63-1.828,3.934,3.934,0,0,1,3.16,1.169,3.911,3.911,0,0,1,1,2.6,3.537,3.537,0,0,1-1.063,2.584,10.412,10.412,0,0,1-2.206,1.512l-1.2.668a7.8,7.8,0,0,0-1.354.905,3.3,3.3,0,0,0-1.107,1.7h6.873V0Zm14.317-12.586a3.719,3.719,0,0,1,3.533,2.013A9,9,0,0,1-5.77-6.311a10.265,10.265,0,0,1-.765,4.245A3.744,3.744,0,0,1-10.156.343a3.626,3.626,0,0,1-3.375-1.969,9.014,9.014,0,0,1-.923-4.412A10.9,10.9,0,0,1-13.9-9.721,3.789,3.789,0,0,1-10.147-12.586ZM-10.165-1.1A2.251,2.251,0,0,0-8.2-2.188a7.891,7.891,0,0,0,.729-4.061A10.032,10.032,0,0,0-8-9.778a2.007,2.007,0,0,0-2.048-1.384,2.141,2.141,0,0,0-2.043,1.314,9.073,9.073,0,0,0-.646,3.872,9.507,9.507,0,0,0,.413,3.094A2.252,2.252,0,0,0-10.165-1.1ZM.259-12.639A3.477,3.477,0,0,1,3.2-11.544,3.691,3.691,0,0,1,4.03-9.29H2.465a2.885,2.885,0,0,0-.448-1.169A2,2,0,0,0,.286-11.25a2.4,2.4,0,0,0-2.109,1.226,7.065,7.065,0,0,0-.87,3.511,3.44,3.44,0,0,1,1.371-1.2A3.954,3.954,0,0,1,.365-8.06a4.105,4.105,0,0,1,2.76,1.011A3.755,3.755,0,0,1,4.3-4.034,4.573,4.573,0,0,1,3.186-1,3.932,3.932,0,0,1,0,.325a4.08,4.08,0,0,1-3.05-1.34q-1.283-1.34-1.283-4.513A12.146,12.146,0,0,1-3.757-9.51Q-2.659-12.639.259-12.639ZM.145-1.081A2.171,2.171,0,0,0,2.013-1.92,3.245,3.245,0,0,0,2.632-3.9a3.388,3.388,0,0,0-.554-1.841A2.194,2.194,0,0,0,.066-6.618a2.624,2.624,0,0,0-1.789.677A2.574,2.574,0,0,0-2.492-3.9a2.974,2.974,0,0,0,.7,2.008A2.419,2.419,0,0,0,.145-1.081Zm6.4-.835H8.38V0H6.543Zm8.332-10.67a3.719,3.719,0,0,1,3.533,2.013,9,9,0,0,1,.844,4.263,10.265,10.265,0,0,1-.765,4.245A3.744,3.744,0,0,1,14.867.343a3.626,3.626,0,0,1-3.375-1.969,9.014,9.014,0,0,1-.923-4.412,10.9,10.9,0,0,1,.554-3.683A3.789,3.789,0,0,1,14.875-12.586ZM14.858-1.1a2.251,2.251,0,0,0,1.96-1.09,7.891,7.891,0,0,0,.729-4.061,10.032,10.032,0,0,0-.527-3.529,2.007,2.007,0,0,0-2.048-1.384,2.141,2.141,0,0,0-2.043,1.314,9.073,9.073,0,0,0-.646,3.872A9.507,9.507,0,0,0,12.7-2.883,2.252,2.252,0,0,0,14.858-1.1ZM21.74-8.912v-1.213a6.445,6.445,0,0,0,2.391-.558,2.751,2.751,0,0,0,1.011-1.85h1.248V0H24.7V-8.912ZM34.7.343A3.955,3.955,0,0,1,31.465-.883a4.55,4.55,0,0,1-1.006-2.984h1.652a4.1,4.1,0,0,0,.457,1.775,2.4,2.4,0,0,0,2.224.993,2.915,2.915,0,0,0,2-.668,2.193,2.193,0,0,0,.756-1.723,2.005,2.005,0,0,0-.8-1.819,4.025,4.025,0,0,0-2.21-.519q-.158,0-.321,0t-.33.013v-1.4q.246.026.413.035t.36.009a3.3,3.3,0,0,0,1.459-.281,1.787,1.787,0,0,0,1-1.758,1.716,1.716,0,0,0-.668-1.45,2.492,2.492,0,0,0-1.556-.51,2.306,2.306,0,0,0-2.188,1.055,3.656,3.656,0,0,0-.378,1.652H30.775a4.747,4.747,0,0,1,.563-2.391,3.547,3.547,0,0,1,3.4-1.758,4.61,4.61,0,0,1,2.979.857,3.013,3.013,0,0,1,1.055,2.483,2.771,2.771,0,0,1-.624,1.881,2.621,2.621,0,0,1-1,.7A2.731,2.731,0,0,1,38.7-5.629a3.178,3.178,0,0,1,.558,1.9A3.878,3.878,0,0,1,38.07-.791,4.68,4.68,0,0,1,34.7.343Z" transform="translate(1042 2976)" fill="#01223d"/>
      <path id="Trazado_35459" data-name="Trazado 35459" d="M-43.321-8.912v-1.213a6.445,6.445,0,0,0,2.391-.558,2.751,2.751,0,0,0,1.011-1.85h1.248V0h-1.687V-8.912ZM-30.357.343A3.955,3.955,0,0,1-33.6-.883,4.55,4.55,0,0,1-34.6-3.867h1.652a4.1,4.1,0,0,0,.457,1.775A2.4,2.4,0,0,0-30.27-1.1a2.915,2.915,0,0,0,2-.668,2.193,2.193,0,0,0,.756-1.723,2.005,2.005,0,0,0-.8-1.819,4.025,4.025,0,0,0-2.21-.519q-.158,0-.321,0t-.33.013v-1.4q.246.026.413.035t.36.009a3.3,3.3,0,0,0,1.459-.281,1.787,1.787,0,0,0,1-1.758,1.716,1.716,0,0,0-.668-1.45,2.492,2.492,0,0,0-1.556-.51,2.306,2.306,0,0,0-2.188,1.055,3.656,3.656,0,0,0-.378,1.652h-1.564a4.747,4.747,0,0,1,.563-2.391,3.547,3.547,0,0,1,3.4-1.758,4.61,4.61,0,0,1,2.979.857,3.013,3.013,0,0,1,1.055,2.483,2.771,2.771,0,0,1-.624,1.881,2.621,2.621,0,0,1-1,.7,2.731,2.731,0,0,1,1.551,1.05,3.178,3.178,0,0,1,.558,1.9A3.878,3.878,0,0,1-26.991-.791,4.68,4.68,0,0,1-30.357.343Zm6.873-2.259h1.837V0h-1.837ZM-15.346.343A3.955,3.955,0,0,1-18.584-.883a4.55,4.55,0,0,1-1.006-2.984h1.652a4.1,4.1,0,0,0,.457,1.775,2.4,2.4,0,0,0,2.224.993,2.915,2.915,0,0,0,2-.668A2.193,2.193,0,0,0-12.5-3.489a2.005,2.005,0,0,0-.8-1.819,4.025,4.025,0,0,0-2.21-.519q-.158,0-.321,0t-.33.013v-1.4q.246.026.413.035t.36.009a3.3,3.3,0,0,0,1.459-.281,1.787,1.787,0,0,0,1-1.758,1.716,1.716,0,0,0-.668-1.45,2.492,2.492,0,0,0-1.556-.51,2.306,2.306,0,0,0-2.188,1.055,3.656,3.656,0,0,0-.378,1.652h-1.564a4.747,4.747,0,0,1,.563-2.391,3.547,3.547,0,0,1,3.4-1.758,4.61,4.61,0,0,1,2.979.857,3.013,3.013,0,0,1,1.055,2.483A2.771,2.771,0,0,1-11.9-7.383a2.621,2.621,0,0,1-1,.7,2.731,2.731,0,0,1,1.551,1.05,3.178,3.178,0,0,1,.558,1.9A3.878,3.878,0,0,1-11.979-.791,4.68,4.68,0,0,1-15.346.343ZM-.6-12.375V-11A14.7,14.7,0,0,0-2.21-8.947,20.764,20.764,0,0,0-3.99-5.8a21.5,21.5,0,0,0-1.16,3q-.255.87-.659,2.8H-7.559A21.539,21.539,0,0,1-4.922-7.172a22.7,22.7,0,0,1,2.531-3.612H-9.352v-1.591ZM2.391-3.041A2,2,0,0,0,3.4-1.23a2.238,2.238,0,0,0,1.09.264,2.449,2.449,0,0,0,1.934-.945A7.774,7.774,0,0,0,7.559-5.748,2.932,2.932,0,0,1,6.253-4.575a4.151,4.151,0,0,1-1.674.338A3.748,3.748,0,0,1,1.7-5.37,4.1,4.1,0,0,1,.642-8.288,4.672,4.672,0,0,1,1.688-11.3a3.723,3.723,0,0,1,3.085-1.3,3.794,3.794,0,0,1,3.8,2.479,8.737,8.737,0,0,1,.58,3.41,11.237,11.237,0,0,1-.694,4.1Q7.3.352,4.553.352a3.779,3.779,0,0,1-2.8-.967A3.306,3.306,0,0,1,.791-3.041Zm2.4-2.584a2.694,2.694,0,0,0,1.718-.62,2.625,2.625,0,0,0,.778-2.167,2.771,2.771,0,0,0-.7-2.07,2.444,2.444,0,0,0-1.78-.681,2.323,2.323,0,0,0-1.841.778,3.043,3.043,0,0,0-.681,2.079,2.981,2.981,0,0,0,.6,1.956A2.333,2.333,0,0,0,4.79-5.625Zm6.759,3.709h1.837V0H11.549ZM17.4-3.041A2,2,0,0,0,18.413-1.23a2.238,2.238,0,0,0,1.09.264,2.449,2.449,0,0,0,1.934-.945A7.774,7.774,0,0,0,22.57-5.748a2.932,2.932,0,0,1-1.305,1.173,4.151,4.151,0,0,1-1.674.338A3.748,3.748,0,0,1,16.712-5.37a4.1,4.1,0,0,1-1.059-2.918A4.672,4.672,0,0,1,16.7-11.3a3.723,3.723,0,0,1,3.085-1.3,3.794,3.794,0,0,1,3.8,2.479,8.737,8.737,0,0,1,.58,3.41,11.237,11.237,0,0,1-.694,4.1Q22.315.352,19.564.352a3.779,3.779,0,0,1-2.8-.967A3.306,3.306,0,0,1,15.8-3.041Zm2.4-2.584a2.694,2.694,0,0,0,1.718-.62A2.625,2.625,0,0,0,22.3-8.411a2.771,2.771,0,0,0-.7-2.07,2.444,2.444,0,0,0-1.78-.681,2.323,2.323,0,0,0-1.841.778A3.043,3.043,0,0,0,17.3-8.306a2.981,2.981,0,0,0,.6,1.956A2.333,2.333,0,0,0,19.8-5.625Zm7.611,2.584A2,2,0,0,0,28.424-1.23a2.238,2.238,0,0,0,1.09.264,2.449,2.449,0,0,0,1.934-.945,7.774,7.774,0,0,0,1.134-3.836,2.932,2.932,0,0,1-1.305,1.173,4.151,4.151,0,0,1-1.674.338A3.748,3.748,0,0,1,26.723-5.37a4.1,4.1,0,0,1-1.059-2.918A4.672,4.672,0,0,1,26.71-11.3a3.723,3.723,0,0,1,3.085-1.3,3.794,3.794,0,0,1,3.8,2.479,8.737,8.737,0,0,1,.58,3.41,11.237,11.237,0,0,1-.694,4.1Q32.326.352,29.575.352a3.779,3.779,0,0,1-2.8-.967,3.306,3.306,0,0,1-.958-2.426Zm2.4-2.584a2.694,2.694,0,0,0,1.718-.62,2.625,2.625,0,0,0,.778-2.167,2.771,2.771,0,0,0-.7-2.07,2.444,2.444,0,0,0-1.78-.681,2.323,2.323,0,0,0-1.841.778,3.043,3.043,0,0,0-.681,2.079,2.981,2.981,0,0,0,.6,1.956A2.333,2.333,0,0,0,29.813-5.625ZM39.929-7.312A2.219,2.219,0,0,0,41.563-7.9a1.9,1.9,0,0,0,.589-1.393,1.836,1.836,0,0,0-.562-1.292,2.268,2.268,0,0,0-1.714-.589,2.078,2.078,0,0,0-1.652.589,2.042,2.042,0,0,0-.51,1.38,1.646,1.646,0,0,0,.659,1.389A2.5,2.5,0,0,0,39.929-7.312Zm.1,6.231a2.785,2.785,0,0,0,1.824-.593,2.154,2.154,0,0,0,.725-1.771A2.294,2.294,0,0,0,41.827-5.3a2.862,2.862,0,0,0-1.916-.633,2.657,2.657,0,0,0-1.85.646A2.286,2.286,0,0,0,37.345-3.5,2.436,2.436,0,0,0,38-1.8,2.616,2.616,0,0,0,40.025-1.081Zm-2.25-5.625a3.146,3.146,0,0,1-1.028-.659,2.49,2.49,0,0,1-.694-1.828,3.284,3.284,0,0,1,1.02-2.417,3.931,3.931,0,0,1,2.892-1.011,4.014,4.014,0,0,1,2.839.954,2.95,2.95,0,0,1,1.028,2.228,2.913,2.913,0,0,1-.6,1.907,3.58,3.58,0,0,1-1.037.809,4.025,4.025,0,0,1,1.23.826,3.182,3.182,0,0,1,.835,2.285A3.9,3.9,0,0,1,43.146-.8,4.182,4.182,0,0,1,39.99.36a4.875,4.875,0,0,1-3.107-1,3.462,3.462,0,0,1-1.27-2.9,3.383,3.383,0,0,1,.545-1.929A3.4,3.4,0,0,1,37.775-6.706Z" transform="translate(1037 3020)" fill="#01223d"/>
      <path id="Trazado_35460" data-name="Trazado 35460" d="M-12.841.343A3.955,3.955,0,0,1-16.08-.883a4.55,4.55,0,0,1-1.006-2.984h1.652a4.1,4.1,0,0,0,.457,1.775,2.4,2.4,0,0,0,2.224.993,2.915,2.915,0,0,0,2-.668,2.193,2.193,0,0,0,.756-1.723,2.005,2.005,0,0,0-.8-1.819A4.025,4.025,0,0,0-13-5.827q-.158,0-.321,0t-.33.013v-1.4q.246.026.413.035t.36.009a3.3,3.3,0,0,0,1.459-.281,1.787,1.787,0,0,0,1-1.758,1.716,1.716,0,0,0-.668-1.45,2.492,2.492,0,0,0-1.556-.51,2.306,2.306,0,0,0-2.188,1.055,3.656,3.656,0,0,0-.378,1.652H-16.77a4.747,4.747,0,0,1,.563-2.391,3.547,3.547,0,0,1,3.4-1.758,4.61,4.61,0,0,1,2.979.857A3.013,3.013,0,0,1-8.771-9.264,2.771,2.771,0,0,1-9.4-7.383a2.621,2.621,0,0,1-1,.7,2.731,2.731,0,0,1,1.551,1.05,3.178,3.178,0,0,1,.558,1.9A3.878,3.878,0,0,1-9.475-.791,4.68,4.68,0,0,1-12.841.343ZM-6.943,0a7.34,7.34,0,0,1,.672-2.83A5.443,5.443,0,0,1-3.99-5.019L-2.3-5.994A7.945,7.945,0,0,0-.712-7.119a2.311,2.311,0,0,0,.721-1.67A2.331,2.331,0,0,0-.65-10.534a2.4,2.4,0,0,0-1.758-.646,2.3,2.3,0,0,0-2.25,1.23,4.405,4.405,0,0,0-.369,1.828H-6.636A5.649,5.649,0,0,1-6.029-10.8,3.806,3.806,0,0,1-2.4-12.63,3.934,3.934,0,0,1,.76-11.461a3.911,3.911,0,0,1,1,2.6A3.537,3.537,0,0,1,.694-6.275,10.412,10.412,0,0,1-1.512-4.764l-1.2.668a7.8,7.8,0,0,0-1.354.905,3.3,3.3,0,0,0-1.107,1.7H1.7V0ZM4,1.837A1.109,1.109,0,0,0,4.852.984,2.413,2.413,0,0,0,4.983.22q0-.062,0-.11A.605.605,0,0,0,4.957,0H4V-1.916H5.88V-.141A3.846,3.846,0,0,1,5.458,1.7,1.922,1.922,0,0,1,4,2.672ZM9.9-3.041A2,2,0,0,0,10.907-1.23,2.238,2.238,0,0,0,12-.967a2.449,2.449,0,0,0,1.934-.945,7.774,7.774,0,0,0,1.134-3.836,2.932,2.932,0,0,1-1.305,1.173,4.151,4.151,0,0,1-1.674.338A3.748,3.748,0,0,1,9.207-5.37,4.1,4.1,0,0,1,8.147-8.288,4.672,4.672,0,0,1,9.193-11.3a3.723,3.723,0,0,1,3.085-1.3,3.794,3.794,0,0,1,3.8,2.479,8.737,8.737,0,0,1,.58,3.41,11.237,11.237,0,0,1-.694,4.1Q14.81.352,12.059.352a3.779,3.779,0,0,1-2.8-.967A3.306,3.306,0,0,1,8.3-3.041Zm2.4-2.584a2.694,2.694,0,0,0,1.718-.62,2.625,2.625,0,0,0,.778-2.167,2.771,2.771,0,0,0-.7-2.07,2.444,2.444,0,0,0-1.78-.681,2.323,2.323,0,0,0-1.841.778,3.043,3.043,0,0,0-.681,2.079,2.981,2.981,0,0,0,.6,1.956A2.333,2.333,0,0,0,12.3-5.625Z" transform="translate(1288 2802)" fill="#01223d"/>
      <path id="Trazado_35461" data-name="Trazado 35461" d="M-15.794-8.912v-1.213a6.445,6.445,0,0,0,2.391-.558,2.751,2.751,0,0,0,1.011-1.85h1.248V0h-1.687V-8.912ZM-1.556-4.456v-5.7l-4.034,5.7ZM-1.529,0V-3.076h-5.52V-4.623l5.766-8H.053v8.165H1.907v1.38H.053V0ZM4,1.837A1.109,1.109,0,0,0,4.852.984,2.413,2.413,0,0,0,4.983.22q0-.062,0-.11A.605.605,0,0,0,4.957,0H4V-1.916H5.88V-.141A3.846,3.846,0,0,1,5.458,1.7,1.922,1.922,0,0,1,4,2.672Zm9.457-6.293v-5.7l-4.034,5.7ZM13.482,0V-3.076H7.963V-4.623l5.766-8h1.336v8.165h1.854v1.38H15.064V0Z" transform="translate(1288 2846)" fill="#01223d"/>
      <path id="Trazado_35462" data-name="Trazado 35462" d="M-3.1-12.375V-11A14.7,14.7,0,0,0-4.711-8.947,20.764,20.764,0,0,0-6.491-5.8a21.5,21.5,0,0,0-1.16,3q-.255.87-.659,2.8h-1.749A21.539,21.539,0,0,1-7.422-7.172a22.7,22.7,0,0,1,2.531-3.612h-6.961v-1.591ZM-.962-1.916H.875V0H-.962ZM7.765-12.639a3.477,3.477,0,0,1,2.94,1.094,3.691,3.691,0,0,1,.831,2.254H9.971a2.885,2.885,0,0,0-.448-1.169,2,2,0,0,0-1.731-.791,2.4,2.4,0,0,0-2.109,1.226,7.065,7.065,0,0,0-.87,3.511,3.44,3.44,0,0,1,1.371-1.2A3.954,3.954,0,0,1,7.871-8.06a4.105,4.105,0,0,1,2.76,1.011,3.755,3.755,0,0,1,1.178,3.015A4.573,4.573,0,0,1,10.692-1,3.932,3.932,0,0,1,7.51.325a4.08,4.08,0,0,1-3.05-1.34Q3.177-2.355,3.177-5.528A12.146,12.146,0,0,1,3.749-9.51Q4.847-12.639,7.765-12.639ZM7.651-1.081A2.171,2.171,0,0,0,9.519-1.92a3.245,3.245,0,0,0,.62-1.982,3.388,3.388,0,0,0-.554-1.841,2.194,2.194,0,0,0-2.013-.875,2.624,2.624,0,0,0-1.789.677A2.574,2.574,0,0,0,5.014-3.9a2.974,2.974,0,0,0,.7,2.008A2.419,2.419,0,0,0,7.651-1.081Z" transform="translate(1293 2889)" fill="#01223d"/>
      <path id="Trazado_35463" data-name="Trazado 35463" d="M-10.288-3.208A2.193,2.193,0,0,0-9.031-1.336a3.033,3.033,0,0,0,1.3.264,2.442,2.442,0,0,0,2.083-.9A3.22,3.22,0,0,0-4.97-3.955a2.6,2.6,0,0,0-.8-2.039A2.791,2.791,0,0,0-7.7-6.715a2.906,2.906,0,0,0-1.4.316,3,3,0,0,0-1,.879L-11.474-5.6l.958-6.776h6.539v1.529H-9.33l-.536,3.5a3.931,3.931,0,0,1,.835-.5A4.238,4.238,0,0,1-7.4-8.139,4.16,4.16,0,0,1-4.469-7.022a3.692,3.692,0,0,1,1.2,2.83,4.856,4.856,0,0,1-1.1,3.146A4.266,4.266,0,0,1-7.888.316a4.483,4.483,0,0,1-2.72-.866,3.434,3.434,0,0,1-1.323-2.659Zm9.281,5.045A1.109,1.109,0,0,0-.154.984,2.413,2.413,0,0,0-.022.22q0-.062,0-.11A.605.605,0,0,0-.048,0h-.958V-1.916H.875V-.141A3.846,3.846,0,0,1,.453,1.7a1.922,1.922,0,0,1-1.459.976ZM7.4-7.312A2.219,2.219,0,0,0,9.031-7.9,1.9,1.9,0,0,0,9.62-9.29a1.836,1.836,0,0,0-.562-1.292,2.268,2.268,0,0,0-1.714-.589,2.078,2.078,0,0,0-1.652.589,2.042,2.042,0,0,0-.51,1.38A1.646,1.646,0,0,0,5.84-7.813,2.5,2.5,0,0,0,7.4-7.312Zm.1,6.231a2.785,2.785,0,0,0,1.824-.593,2.154,2.154,0,0,0,.725-1.771A2.294,2.294,0,0,0,9.294-5.3a2.862,2.862,0,0,0-1.916-.633,2.657,2.657,0,0,0-1.85.646A2.286,2.286,0,0,0,4.812-3.5a2.436,2.436,0,0,0,.655,1.7A2.616,2.616,0,0,0,7.493-1.081ZM5.243-6.706a3.146,3.146,0,0,1-1.028-.659A2.49,2.49,0,0,1,3.52-9.193,3.284,3.284,0,0,1,4.54-11.61a3.931,3.931,0,0,1,2.892-1.011,4.014,4.014,0,0,1,2.839.954A2.95,2.95,0,0,1,11.3-9.439a2.913,2.913,0,0,1-.6,1.907,3.58,3.58,0,0,1-1.037.809,4.025,4.025,0,0,1,1.23.826,3.182,3.182,0,0,1,.835,2.285A3.9,3.9,0,0,1,10.613-.8,4.182,4.182,0,0,1,7.458.36a4.875,4.875,0,0,1-3.107-1,3.462,3.462,0,0,1-1.27-2.9,3.383,3.383,0,0,1,.545-1.929A3.4,3.4,0,0,1,5.243-6.706Z" transform="translate(1293 2933)" fill="#01223d"/>
      <path id="Trazado_35464" data-name="Trazado 35464" d="M-10.288-3.208A2.193,2.193,0,0,0-9.031-1.336a3.033,3.033,0,0,0,1.3.264,2.442,2.442,0,0,0,2.083-.9A3.22,3.22,0,0,0-4.97-3.955a2.6,2.6,0,0,0-.8-2.039A2.791,2.791,0,0,0-7.7-6.715a2.906,2.906,0,0,0-1.4.316,3,3,0,0,0-1,.879L-11.474-5.6l.958-6.776h6.539v1.529H-9.33l-.536,3.5a3.931,3.931,0,0,1,.835-.5A4.238,4.238,0,0,1-7.4-8.139,4.16,4.16,0,0,1-4.469-7.022a3.692,3.692,0,0,1,1.2,2.83,4.856,4.856,0,0,1-1.1,3.146A4.266,4.266,0,0,1-7.888.316a4.483,4.483,0,0,1-2.72-.866,3.434,3.434,0,0,1-1.323-2.659Zm9.281,5.045A1.109,1.109,0,0,0-.154.984,2.413,2.413,0,0,0-.022.22q0-.062,0-.11A.605.605,0,0,0-.048,0h-.958V-1.916H.875V-.141A3.846,3.846,0,0,1,.453,1.7a1.922,1.922,0,0,1-1.459.976ZM7.765-12.639a3.477,3.477,0,0,1,2.94,1.094,3.691,3.691,0,0,1,.831,2.254H9.971a2.885,2.885,0,0,0-.448-1.169,2,2,0,0,0-1.731-.791,2.4,2.4,0,0,0-2.109,1.226,7.065,7.065,0,0,0-.87,3.511,3.44,3.44,0,0,1,1.371-1.2A3.954,3.954,0,0,1,7.871-8.06a4.105,4.105,0,0,1,2.76,1.011,3.755,3.755,0,0,1,1.178,3.015A4.573,4.573,0,0,1,10.692-1,3.932,3.932,0,0,1,7.51.325a4.08,4.08,0,0,1-3.05-1.34Q3.177-2.355,3.177-5.528A12.146,12.146,0,0,1,3.749-9.51Q4.847-12.639,7.765-12.639ZM7.651-1.081A2.171,2.171,0,0,0,9.519-1.92a3.245,3.245,0,0,0,.62-1.982,3.388,3.388,0,0,0-.554-1.841,2.194,2.194,0,0,0-2.013-.875,2.624,2.624,0,0,0-1.789.677A2.574,2.574,0,0,0,5.014-3.9a2.974,2.974,0,0,0,.7,2.008A2.419,2.419,0,0,0,7.651-1.081Z" transform="translate(1293 2976)" fill="#01223d"/>
      <path id="Trazado_35465" data-name="Trazado 35465" d="M-12.841.343A3.955,3.955,0,0,1-16.08-.883a4.55,4.55,0,0,1-1.006-2.984h1.652a4.1,4.1,0,0,0,.457,1.775,2.4,2.4,0,0,0,2.224.993,2.915,2.915,0,0,0,2-.668,2.193,2.193,0,0,0,.756-1.723,2.005,2.005,0,0,0-.8-1.819A4.025,4.025,0,0,0-13-5.827q-.158,0-.321,0t-.33.013v-1.4q.246.026.413.035t.36.009a3.3,3.3,0,0,0,1.459-.281,1.787,1.787,0,0,0,1-1.758,1.716,1.716,0,0,0-.668-1.45,2.492,2.492,0,0,0-1.556-.51,2.306,2.306,0,0,0-2.188,1.055,3.656,3.656,0,0,0-.378,1.652H-16.77a4.747,4.747,0,0,1,.563-2.391,3.547,3.547,0,0,1,3.4-1.758,4.61,4.61,0,0,1,2.979.857A3.013,3.013,0,0,1-8.771-9.264,2.771,2.771,0,0,1-9.4-7.383a2.621,2.621,0,0,1-1,.7,2.731,2.731,0,0,1,1.551,1.05,3.178,3.178,0,0,1,.558,1.9A3.878,3.878,0,0,1-9.475-.791,4.68,4.68,0,0,1-12.841.343Zm10.011,0A3.955,3.955,0,0,1-6.069-.883,4.55,4.55,0,0,1-7.075-3.867h1.652a4.1,4.1,0,0,0,.457,1.775A2.4,2.4,0,0,0-2.742-1.1a2.915,2.915,0,0,0,2-.668A2.193,2.193,0,0,0,.018-3.489a2.005,2.005,0,0,0-.8-1.819,4.025,4.025,0,0,0-2.21-.519q-.158,0-.321,0t-.33.013v-1.4q.246.026.413.035t.36.009a3.3,3.3,0,0,0,1.459-.281A1.787,1.787,0,0,0-.4-9.2a1.716,1.716,0,0,0-.668-1.45,2.492,2.492,0,0,0-1.556-.51,2.306,2.306,0,0,0-2.188,1.055,3.656,3.656,0,0,0-.378,1.652H-6.759A4.747,4.747,0,0,1-6.2-10.846a3.547,3.547,0,0,1,3.4-1.758,4.61,4.61,0,0,1,2.979.857A3.013,3.013,0,0,1,1.239-9.264,2.771,2.771,0,0,1,.615-7.383a2.621,2.621,0,0,1-1,.7,2.731,2.731,0,0,1,1.551,1.05,3.178,3.178,0,0,1,.558,1.9A3.878,3.878,0,0,1,.536-.791,4.68,4.68,0,0,1-2.83.343ZM4,1.837A1.109,1.109,0,0,0,4.852.984,2.413,2.413,0,0,0,4.983.22q0-.062,0-.11A.605.605,0,0,0,4.957,0H4V-1.916H5.88V-.141A3.846,3.846,0,0,1,5.458,1.7,1.922,1.922,0,0,1,4,2.672ZM9.9-3.041A2,2,0,0,0,10.907-1.23,2.238,2.238,0,0,0,12-.967a2.449,2.449,0,0,0,1.934-.945,7.774,7.774,0,0,0,1.134-3.836,2.932,2.932,0,0,1-1.305,1.173,4.151,4.151,0,0,1-1.674.338A3.748,3.748,0,0,1,9.207-5.37,4.1,4.1,0,0,1,8.147-8.288,4.672,4.672,0,0,1,9.193-11.3a3.723,3.723,0,0,1,3.085-1.3,3.794,3.794,0,0,1,3.8,2.479,8.737,8.737,0,0,1,.58,3.41,11.237,11.237,0,0,1-.694,4.1Q14.81.352,12.059.352a3.779,3.779,0,0,1-2.8-.967A3.306,3.306,0,0,1,8.3-3.041Zm2.4-2.584a2.694,2.694,0,0,0,1.718-.62,2.625,2.625,0,0,0,.778-2.167,2.771,2.771,0,0,0-.7-2.07,2.444,2.444,0,0,0-1.78-.681,2.323,2.323,0,0,0-1.841.778,3.043,3.043,0,0,0-.681,2.079,2.981,2.981,0,0,0,.6,1.956A2.333,2.333,0,0,0,12.3-5.625Z" transform="translate(1288 3020)" fill="#01223d"/>
      <path id="Trazado_35467" data-name="Trazado 35467" d="M-42.108-3.911a2.865,2.865,0,0,0,.246,1.266,1.686,1.686,0,0,0,1.661.923,1.841,1.841,0,0,0,1.288-.505,1.878,1.878,0,0,0,.549-1.455,1.639,1.639,0,0,0-1.02-1.679A5.175,5.175,0,0,0-41.212-5.6V-7.392a4.743,4.743,0,0,0,1.705-.237,1.466,1.466,0,0,0,.835-1.494A1.67,1.67,0,0,0-39.1-10.31a1.56,1.56,0,0,0-1.2-.457A1.518,1.518,0,0,0-41.6-10.2,2.386,2.386,0,0,0-42-8.7h-2.338a6.286,6.286,0,0,1,.325-1.8,4.056,4.056,0,0,1,.967-1.38,3.368,3.368,0,0,1,1.169-.686,5.059,5.059,0,0,1,1.661-.237,4.421,4.421,0,0,1,2.949.945,3.147,3.147,0,0,1,1.121,2.536,2.8,2.8,0,0,1-.668,1.9,2.281,2.281,0,0,1-.879.659,1.808,1.808,0,0,1,.984.589,3.145,3.145,0,0,1,.958,2.426A4.086,4.086,0,0,1-36.875-.91,4.272,4.272,0,0,1-40.192.316,4.014,4.014,0,0,1-43.954-1.45a5.243,5.243,0,0,1-.615-2.461ZM-34.5-8.262a4.675,4.675,0,0,1,1.182-3.318,4,4,0,0,1,3.072-1.27,3.968,3.968,0,0,1,3.99,2.575,10.027,10.027,0,0,1,.615,3.841,10.929,10.929,0,0,1-.589,3.858A4.123,4.123,0,0,1-30.357.369a4.213,4.213,0,0,1-2.575-.848,3.344,3.344,0,0,1-1.31-2.474h2.5a1.508,1.508,0,0,0,.475.914,1.47,1.47,0,0,0,1.028.352A1.787,1.787,0,0,0-28.5-3.059a8,8,0,0,0,.343-2.206,2.709,2.709,0,0,1-.729.659,3.311,3.311,0,0,1-1.731.422,3.938,3.938,0,0,1-2.7-1.05A3.845,3.845,0,0,1-34.5-8.262Zm4.421,2.039a1.751,1.751,0,0,0,.976-.3,2.067,2.067,0,0,0,.853-1.89,2.671,2.671,0,0,0-.505-1.714,1.675,1.675,0,0,0-1.384-.633,1.72,1.72,0,0,0-1.1.36,2.278,2.278,0,0,0-.721,1.907,2.653,2.653,0,0,0,.461,1.7A1.723,1.723,0,0,0-30.076-6.223Zm6.179,3.6h2.663V0H-23.9Zm13.289-.123H-12.05V0H-14.5V-2.742h-5.045V-4.931l4.685-7.734h2.813V-4.7h1.441ZM-14.5-4.7v-5.5l-3.19,5.5Zm7.567,1a2.047,2.047,0,0,0,.488,1.459A1.762,1.762,0,0,0-5.1-1.723a1.762,1.762,0,0,0,1.349-.519A2.047,2.047,0,0,0-3.261-3.7a2.029,2.029,0,0,0-.5-1.481A1.794,1.794,0,0,0-5.1-5.687a1.794,1.794,0,0,0-1.34.505A2.029,2.029,0,0,0-6.935-3.7Zm-2.6.167a3.9,3.9,0,0,1,.488-1.942A3.089,3.089,0,0,1-7.62-6.785a2.974,2.974,0,0,1-1.2-1.332A3.731,3.731,0,0,1-9.1-9.457a3.128,3.128,0,0,1,1.046-2.369,4.154,4.154,0,0,1,2.953-.98,4.154,4.154,0,0,1,2.953.98A3.128,3.128,0,0,1-1.1-9.457a3.731,3.731,0,0,1-.277,1.34,2.56,2.56,0,0,1-1.2,1.244,3.532,3.532,0,0,1,1.415,1.4A3.989,3.989,0,0,1-.686-3.533,3.634,3.634,0,0,1-1.876-.8,4.642,4.642,0,0,1-5.2.334,4.313,4.313,0,0,1-8.437-.8,3.782,3.782,0,0,1-9.536-3.533Zm2.83-5.643A1.56,1.56,0,0,0-6.28-8.042,1.57,1.57,0,0,0-5.1-7.6a1.553,1.553,0,0,0,1.182-.439A1.579,1.579,0,0,0-3.5-9.176a1.617,1.617,0,0,0-.417-1.182A1.58,1.58,0,0,0-5.1-10.784a1.6,1.6,0,0,0-1.182.426A1.6,1.6,0,0,0-6.706-9.176Zm7.242.914A4.675,4.675,0,0,1,1.718-11.58,4,4,0,0,1,4.79-12.85a3.968,3.968,0,0,1,3.99,2.575A10.027,10.027,0,0,1,9.4-6.434a10.929,10.929,0,0,1-.589,3.858A4.123,4.123,0,0,1,4.676.369,4.213,4.213,0,0,1,2.1-.479,3.344,3.344,0,0,1,.791-2.953h2.5a1.508,1.508,0,0,0,.475.914,1.47,1.47,0,0,0,1.028.352A1.787,1.787,0,0,0,6.53-3.059a8,8,0,0,0,.343-2.206,2.709,2.709,0,0,1-.729.659,3.311,3.311,0,0,1-1.731.422,3.938,3.938,0,0,1-2.7-1.05A3.845,3.845,0,0,1,.536-8.262ZM4.957-6.223a1.751,1.751,0,0,0,.976-.3,2.067,2.067,0,0,0,.853-1.89,2.671,2.671,0,0,0-.505-1.714A1.675,1.675,0,0,0,4.9-10.758a1.72,1.72,0,0,0-1.1.36A2.278,2.278,0,0,0,3.076-8.49a2.653,2.653,0,0,0,.461,1.7A1.723,1.723,0,0,0,4.957-6.223Zm6.179,3.6H13.8V0H11.136Zm5.124-6.17v-1.705a11.1,11.1,0,0,0,1.661-.158,2.343,2.343,0,0,0,1.23-.668,2.2,2.2,0,0,0,.492-.914,2.1,2.1,0,0,0,.1-.51h2.083V0H19.257V-8.789ZM28.1-4.034a2.5,2.5,0,0,0,.554,1.679,1.766,1.766,0,0,0,1.406.65,1.562,1.562,0,0,0,1.314-.628,2.616,2.616,0,0,0,.479-1.63,2.44,2.44,0,0,0-.545-1.709,1.744,1.744,0,0,0-1.336-.593,1.784,1.784,0,0,0-1.134.387A2.189,2.189,0,0,0,28.1-4.034Zm3.524-5.5a1.278,1.278,0,0,0-.237-.677,1.375,1.375,0,0,0-1.222-.6,1.806,1.806,0,0,0-1.74,1.371,8.508,8.508,0,0,0-.387,2.232,2.811,2.811,0,0,1,1.081-.809,3.648,3.648,0,0,1,1.406-.255,3.654,3.654,0,0,1,2.782,1.151,4.12,4.12,0,0,1,1.085,2.944,4.97,4.97,0,0,1-1.063,3.146,3.932,3.932,0,0,1-3.3,1.362,3.8,3.8,0,0,1-3.551-2.013,8.207,8.207,0,0,1-.888-4.061,18.465,18.465,0,0,1,.123-2.373,7.257,7.257,0,0,1,.853-2.707A4.362,4.362,0,0,1,27.989-12.3a3.852,3.852,0,0,1,2.114-.562,4.184,4.184,0,0,1,2.83.91,3.459,3.459,0,0,1,1.187,2.421ZM38.109-3.7A2.047,2.047,0,0,0,38.6-2.241a1.762,1.762,0,0,0,1.349.519A1.762,1.762,0,0,0,41.3-2.241,2.047,2.047,0,0,0,41.783-3.7a2.029,2.029,0,0,0-.5-1.481,1.794,1.794,0,0,0-1.34-.505,1.794,1.794,0,0,0-1.34.505A2.029,2.029,0,0,0,38.109-3.7Zm-2.6.167A3.9,3.9,0,0,1,36-5.476a3.089,3.089,0,0,1,1.428-1.31,2.974,2.974,0,0,1-1.2-1.332,3.731,3.731,0,0,1-.277-1.34,3.128,3.128,0,0,1,1.046-2.369,4.154,4.154,0,0,1,2.953-.98,4.154,4.154,0,0,1,2.953.98,3.128,3.128,0,0,1,1.046,2.369,3.731,3.731,0,0,1-.277,1.34,2.56,2.56,0,0,1-1.2,1.244,3.532,3.532,0,0,1,1.415,1.4,3.989,3.989,0,0,1,.475,1.942A3.634,3.634,0,0,1,43.167-.8,4.642,4.642,0,0,1,39.841.334,4.313,4.313,0,0,1,36.606-.8,3.782,3.782,0,0,1,35.508-3.533Zm2.83-5.643a1.56,1.56,0,0,0,.426,1.134,1.57,1.57,0,0,0,1.182.439,1.553,1.553,0,0,0,1.182-.439,1.579,1.579,0,0,0,.417-1.134,1.617,1.617,0,0,0-.417-1.182,1.58,1.58,0,0,0-1.182-.426,1.6,1.6,0,0,0-1.182.426A1.6,1.6,0,0,0,38.338-9.176Z" transform="translate(1037 3083)" fill="#fff"/>
      <path id="Trazado_35466" data-name="Trazado 35466" d="M-21.274-8.789v-1.705a11.1,11.1,0,0,0,1.661-.158,2.343,2.343,0,0,0,1.23-.668,2.2,2.2,0,0,0,.492-.914,2.1,2.1,0,0,0,.1-.51h2.083V0h-2.566V-8.789Zm11.883,2.54a12,12,0,0,0,.36,3.362A1.451,1.451,0,0,0-7.554-1.723,1.431,1.431,0,0,0-6.091-2.887a12.438,12.438,0,0,0,.347-3.362,12.3,12.3,0,0,0-.347-3.41,1.418,1.418,0,0,0-1.463-1.107A1.439,1.439,0,0,0-9.031-9.659,11.871,11.871,0,0,0-9.391-6.249Zm1.837-6.583A3.6,3.6,0,0,1-4.14-11.118a9.917,9.917,0,0,1,.98,4.869,9.864,9.864,0,0,1-.98,4.86A3.606,3.606,0,0,1-7.554.316a3.606,3.606,0,0,1-3.415-1.705,9.864,9.864,0,0,1-.98-4.86,9.917,9.917,0,0,1,.98-4.869A3.6,3.6,0,0,1-7.554-12.832ZM.62-6.249A12,12,0,0,0,.98-2.887,1.451,1.451,0,0,0,2.457-1.723,1.431,1.431,0,0,0,3.92-2.887a12.438,12.438,0,0,0,.347-3.362,12.3,12.3,0,0,0-.347-3.41,1.418,1.418,0,0,0-1.463-1.107A1.439,1.439,0,0,0,.98-9.659,11.871,11.871,0,0,0,.62-6.249Zm1.837-6.583a3.6,3.6,0,0,1,3.415,1.714,9.917,9.917,0,0,1,.98,4.869,9.864,9.864,0,0,1-.98,4.86A3.606,3.606,0,0,1,2.457.316,3.606,3.606,0,0,1-.958-1.389a9.864,9.864,0,0,1-.98-4.86,9.917,9.917,0,0,1,.98-4.869A3.6,3.6,0,0,1,2.457-12.832ZM8.547,2.083a1.964,1.964,0,0,0,1.112-.7A2.594,2.594,0,0,0,10.068,0H8.547V-2.619h2.707V-.352A5.279,5.279,0,0,1,11.1.9a2.537,2.537,0,0,1-.589,1.125,3.034,3.034,0,0,1-1.094.769,2.833,2.833,0,0,1-.866.259Zm7.084-8.332a12,12,0,0,0,.36,3.362,1.451,1.451,0,0,0,1.477,1.165,1.431,1.431,0,0,0,1.463-1.165,12.438,12.438,0,0,0,.347-3.362,12.3,12.3,0,0,0-.347-3.41,1.418,1.418,0,0,0-1.463-1.107,1.439,1.439,0,0,0-1.477,1.107A11.871,11.871,0,0,0,15.631-6.249Zm1.837-6.583a3.6,3.6,0,0,1,3.415,1.714,9.917,9.917,0,0,1,.98,4.869,9.864,9.864,0,0,1-.98,4.86A3.606,3.606,0,0,1,17.468.316a3.606,3.606,0,0,1-3.415-1.705,9.864,9.864,0,0,1-.98-4.86,9.917,9.917,0,0,1,.98-4.869A3.6,3.6,0,0,1,17.468-12.832Z" transform="translate(1282 3083)" fill="#fff"/>
    </g>
  </g>
</svg>
